<svg width="55" height="55" viewBox="0 0 55 55" fill="none" xmlns="http://www.w3.org/2000/svg">
<g clip-path="url(#clip0_328_2169)">
<path d="M33.6403 22.3905L25.3733 30.1943L21.4043 26.1143C20.9656 25.6621 20.239 25.6518 19.7866 26.0903C19.3342 26.5288 19.3239 27.2551 19.7626 27.7073L24.5233 32.5889C24.9655 33.0343 25.6784 33.048 26.1411 32.6232L35.234 24.0486C35.4534 23.8396 35.5836 23.5519 35.5939 23.2504C35.6042 22.9489 35.4911 22.6543 35.282 22.4316C34.8399 21.9726 34.1098 21.952 33.6437 22.3871L33.6403 22.3905Z" fill="#009D85"/>
<path d="M27.5052 10.3799C18.0558 10.3799 10.3715 18.0604 10.3715 27.5051C10.3715 36.9499 18.0558 44.6303 27.5052 44.6303C36.9546 44.6303 44.6389 36.9499 44.6389 27.5051C44.6389 18.0604 36.9546 10.3799 27.5052 10.3799V10.3799ZM27.5052 42.3351C19.3171 42.3351 12.6678 35.6755 12.6678 27.5017C12.6678 19.3279 19.3205 12.6718 27.5052 12.6718C35.6899 12.6718 42.346 19.3108 42.346 27.5017C42.346 35.6926 35.7036 42.3351 27.5052 42.3351Z" fill="#009D85"/>
<path d="M54.8082 26.8715L51.0826 21.1985L51.4596 14.4019C51.487 13.9463 51.2368 13.5181 50.8289 13.3125L44.7727 10.2533L41.712 4.20009C41.5029 3.79586 41.0779 3.54921 40.622 3.56976L33.8083 3.93631L28.1359 0.188571C27.752 -0.0649323 27.2585 -0.0649323 26.8746 0.188571L21.1988 3.93631L14.3988 3.55948C13.9429 3.53208 13.5145 3.78216 13.3088 4.18982L10.2481 10.2431L4.1953 13.3022C3.79087 13.5112 3.54409 13.936 3.56466 14.3916L3.94167 21.1883L0.188636 26.8613C-0.0649944 27.2449 -0.0649944 27.7382 0.188636 28.1219L3.92796 33.8052L3.55095 40.6018C3.52353 41.0575 3.77373 41.4857 4.18159 41.6912L10.2379 44.7504L13.2986 50.8036C13.5076 51.2079 13.9326 51.4545 14.3885 51.434L21.1885 51.0571L26.8643 54.8049C27.2448 55.0652 27.7452 55.0652 28.1256 54.8049L33.8015 51.0571L40.6015 51.434C41.0573 51.4614 41.4858 51.2113 41.6914 50.8036L44.7521 44.7504L50.8084 41.6912C51.2128 41.4822 51.4596 41.0575 51.439 40.6018L51.062 33.8052L54.8116 28.1322C55.0652 27.7485 55.0652 27.2552 54.8116 26.8715H54.8082ZM48.9473 32.8665C48.8068 33.0721 48.7416 33.3187 48.7656 33.5654L49.1221 39.9955L43.3983 42.8834C43.1789 42.993 43.0041 43.1711 42.8944 43.3869L40.0051 49.1079L33.5718 48.7516C33.325 48.7414 33.0817 48.8064 32.8726 48.9332L27.5053 52.4754L22.1379 48.9332C21.9528 48.8064 21.7335 48.7379 21.5073 48.7379H21.449L15.0157 49.0942L12.1264 43.3732C12.0167 43.154 11.8385 42.9793 11.6225 42.8697L5.88845 39.9921L6.24491 33.562C6.25519 33.3153 6.19007 33.0721 6.05983 32.8631L2.51586 27.4984L6.05983 22.1338C6.20035 21.9282 6.26547 21.6816 6.24491 21.4349L5.88845 15.0048L11.6123 12.1169C11.8316 12.0073 12.0064 11.8292 12.1161 11.6134L15.0054 5.8924L21.4387 6.24868C21.6855 6.25553 21.9288 6.19386 22.1379 6.06369L27.5053 2.52149L32.8726 6.06369C33.0783 6.20414 33.325 6.26923 33.5718 6.24868L40.0051 5.8924L42.8944 11.6134C43.0041 11.8326 43.1823 12.0073 43.3983 12.1169L49.1221 15.0048L48.7656 21.4349C48.7553 21.6816 48.8205 21.9248 48.9473 22.1338L52.4912 27.4984L48.9473 32.8631V32.8665Z" fill="#009D85"/>
</g>
<defs>
<clipPath id="clip0_328_2169">
<rect width="55" height="55" fill="white"/>
</clipPath>
</defs>
</svg>
