<svg width="38" height="38" viewBox="0 0 38 38" fill="none" xmlns="http://www.w3.org/2000/svg">
<path d="M29.7779 10.4612C30.3962 9.8429 30.3962 8.84038 29.7779 8.22206C29.1596 7.60372 28.157 7.60372 27.5387 8.22206L19 16.7608L10.4612 8.22206C9.8429 7.60372 8.84038 7.60372 8.22206 8.22206C7.60372 8.84038 7.60372 9.8429 8.22206 10.4612L16.7608 19L8.22206 27.5387C7.60372 28.157 7.60372 29.1596 8.22206 29.7779C8.84038 30.3962 9.8429 30.3962 10.4612 29.7779L19 21.2391L27.5387 29.7779C28.157 30.3962 29.1596 30.3962 29.7779 29.7779C30.3962 29.1596 30.3962 28.157 29.7779 27.5387L21.2391 19L29.7779 10.4612Z" fill="white"/>
</svg>
