<svg width="43" height="43" viewBox="0 0 43 43" fill="none" xmlns="http://www.w3.org/2000/svg">
<path d="M36.3638 6.24172C32.3424 2.22031 26.9857 0.0155267 21.2875 0H21.2564C16.3189 0 11.5212 1.72346 7.73269 4.84432C7.36005 5.15485 7.31347 5.69828 7.60848 6.07092C7.91901 6.44356 8.46244 6.49014 8.83508 6.19514C12.3131 3.3227 16.7226 1.73899 21.2564 1.73899H21.2875C32.0785 1.75451 40.8666 10.5426 40.8666 21.3181C40.8666 32.0936 32.094 40.8972 21.2875 40.8972C10.4809 40.8972 1.7394 32.0936 1.72387 21.3026C1.72387 19.0202 2.11204 16.7843 2.87285 14.6572C3.02811 14.2069 2.79521 13.71 2.34494 13.5548C1.89467 13.3995 1.39782 13.6324 1.24255 14.0827C0.404109 16.3961 -0.0151107 18.8338 0.000415981 21.3181C0.000415981 33.0718 9.56484 42.6207 21.303 42.6207C33.0411 42.6207 42.6056 33.0563 42.6056 21.3181C42.6056 15.6198 40.3853 10.2786 36.3638 6.25724" fill="white"/>
<path d="M27.5602 6.78523C25.5728 5.93127 23.4612 5.49652 21.2875 5.49652C12.577 5.49652 5.48134 12.5922 5.48134 21.3027C5.48134 30.0131 12.577 37.1088 21.2875 37.1088C29.9979 37.1088 37.0936 30.0131 37.0936 21.3027C37.0936 20.8213 36.7054 20.4332 36.2241 20.4332H33.0567C32.5754 20.4332 32.1872 20.8213 32.1872 21.3027C32.1872 21.784 32.5754 22.1721 33.0567 22.1721H35.3391C34.9044 29.2368 29.2371 34.9195 22.157 35.3543V33.0719C22.157 32.5905 21.7688 32.2024 21.2875 32.2024C20.8061 32.2024 20.418 32.5905 20.418 33.0719V35.3543C13.3534 34.9195 7.6706 29.2523 7.23585 22.1721H9.51827C9.9996 22.1721 10.3878 21.784 10.3878 21.3027C10.3878 20.8213 9.9996 20.4332 9.51827 20.4332H7.23585C7.6706 13.3685 13.3378 7.68578 20.418 7.25103V9.53345C20.418 10.0148 20.8061 10.4029 21.2875 10.4029C21.7688 10.4029 22.157 10.0148 22.157 9.53345V7.25103C23.7873 7.34419 25.371 7.71683 26.8771 8.36895C27.3118 8.55527 27.8242 8.36895 28.0105 7.91868C28.1968 7.48393 28.0105 6.97155 27.5602 6.78523Z" fill="white"/>
<path d="M25.1226 19.0668C24.9362 18.7407 24.7033 18.4457 24.4394 18.1818C24.1754 17.9178 23.8649 17.6849 23.5544 17.4986L26.2094 16.4273L25.1381 19.0823L25.1226 19.0668ZM17.4679 23.554C17.6542 23.8801 17.8871 24.1751 18.1666 24.4546C18.4461 24.734 18.7411 24.9669 19.0672 25.1533L16.3966 26.2401L17.4834 23.5695L17.4679 23.554ZM21.303 18.6165C22.0172 18.6165 22.7004 18.896 23.2128 19.4084C24.2686 20.4642 24.2686 22.1721 23.2128 23.228C22.7004 23.7403 22.0172 24.0198 21.303 24.0198C20.5888 24.0198 19.9056 23.7403 19.3932 23.228C18.3374 22.1721 18.3374 20.4642 19.3932 19.4084C19.6416 19.16 19.9367 18.9736 20.2472 18.8339L20.3093 18.8029C20.6198 18.6786 20.9459 18.6165 21.2875 18.6165M27.436 14.0362L19.7659 17.1415C19.1603 17.3589 18.6169 17.7005 18.1511 18.1663C17.7474 18.57 17.4524 19.0202 17.235 19.5016C17.2195 19.5326 17.1884 19.5792 17.1729 19.6102L13.9899 27.4512C13.8657 27.7773 13.9278 28.1499 14.1763 28.3828C14.3471 28.5536 14.5644 28.6312 14.7818 28.6312C14.8905 28.6312 14.9992 28.6157 15.1079 28.5691L22.9488 25.3862C22.9488 25.3862 23.0265 25.3551 23.0575 25.3396C23.5544 25.1222 24.0046 24.8117 24.4083 24.4235C24.8276 24.0043 25.1536 23.523 25.3555 23.0106C25.3555 23.0106 25.3555 23.0106 25.3555 22.9951L28.5384 15.1541C28.6626 14.828 28.6005 14.4554 28.3521 14.2225C28.1037 13.9741 27.731 13.8964 27.4205 14.0362" fill="white"/>
</svg>
