<svg width="11" height="6" viewBox="0 0 11 6" fill="none" xmlns="http://www.w3.org/2000/svg">
<path d="M10.2891 0.5625C10.3359 0.609375 10.3594 0.65625 10.3594 0.75C10.3594 0.820312 10.3359 0.890625 10.2891 0.960937L5.36719 5.85937C5.32031 5.90625 5.25 5.95312 5.17969 5.95312C5.08594 5.95312 5.03906 5.90625 4.99219 5.85937L0.0703125 0.960937C0.0234375 0.890625 -3.5857e-08 0.820312 -3.27835e-08 0.75C-2.86856e-08 0.65625 0.0234375 0.609375 0.0703125 0.5625L0.539062 0.0937496C0.585937 0.0234371 0.632812 -4.25162e-07 0.726562 -4.21064e-07C0.796875 -4.1799e-07 0.867187 0.0234371 0.9375 0.0937496L5.17969 4.33594L9.42187 0.09375C9.46875 0.0234375 9.53906 -3.5857e-08 9.63281 -3.17591e-08C9.70312 -2.86856e-08 9.77344 0.0234375 9.82031 0.09375L10.2891 0.5625Z" fill="#003A40"/>
</svg>
