<svg width="20" height="18" viewBox="0 0 20 18" fill="none" xmlns="http://www.w3.org/2000/svg">
<path d="M11.8972 2.15674C10.9509 2.15674 10.0434 2.52219 9.3743 3.17271C8.7052 3.82323 8.3293 4.70552 8.3293 5.62549V7.55674H6.42002C6.32416 7.55674 6.24644 7.63229 6.24644 7.72549V10.2755C6.24644 10.3687 6.32416 10.4442 6.42002 10.4442H8.3293V15.6755C8.3293 15.7687 8.40701 15.8442 8.50287 15.8442H11.1257C11.2216 15.8442 11.2993 15.7687 11.2993 15.6755V10.4442H13.2255C13.3051 10.4442 13.3746 10.3915 13.3939 10.3164L14.0496 7.76642C14.077 7.65991 13.9941 7.55674 13.8812 7.55674H11.2993V5.62549C11.2993 5.47133 11.3623 5.32349 11.4744 5.21448C11.5865 5.10548 11.7386 5.04424 11.8972 5.04424H13.9029C13.9987 5.04424 14.0764 4.96869 14.0764 4.87549V2.32549C14.0764 2.23229 13.9987 2.15674 13.9029 2.15674H11.8972Z" fill="white"/>
</svg>
