<svg width="44" height="47" viewBox="0 0 44 47" fill="none" xmlns="http://www.w3.org/2000/svg">
<path d="M35.8564 10.2408V15.6921L40.2016 9.90997V36.3471L34.9207 43.3896H28.0381C29.5605 41.3729 31.0671 39.3563 32.5895 37.3396V0C30.068 3.37159 27.5306 6.72743 25.0091 10.099V15.5503L29.3067 9.83119V36.2683L23.9465 43.4053H17.2542C18.729 41.4517 20.2039 39.4823 21.6787 37.5287V0.189061C14.4472 9.83119 7.23154 19.4576 0 29.0997C0 34.9606 0.0158586 40.8058 0.0158586 46.6667H36.5541C38.8536 43.5944 41.169 40.5222 43.4685 37.4499V0.110286C40.947 3.46613 38.3937 6.85348 35.8564 10.2408ZM7.58043 24.4204V36.5676L3.28274 42.3025V30.1553L7.58043 24.4204ZM6.56547 43.3896L10.4667 38.2062L10.879 37.6705V20.072L18.4119 10.036V36.4416L13.1785 43.4053H6.56547V43.3896Z" fill="#009D85"/>
</svg>
