<svg width="108" height="53" viewBox="0 0 108 53" fill="none" xmlns="http://www.w3.org/2000/svg">
<g clip-path="url(#clip0_192_5418)">
<path d="M17.977 49.926H20.3259V50.4864H18.6243V51.1034H20.236V51.6584H18.6243V52.3912H20.3893V52.9516H17.9744V49.9287L17.977 49.926Z" fill="white"/>
<path d="M25.0527 49.926H25.6736L26.7067 51.362C26.8732 51.591 27.0634 51.917 27.0634 51.917V49.926H27.7107V52.9489H27.0845L26.0832 51.5668C25.885 51.2974 25.7001 50.9741 25.7001 50.9741V52.9489H25.0527V49.926Z" fill="white"/>
<path d="M32.3713 51.4374C32.3713 50.5752 33.0292 49.8801 33.9566 49.8801C34.3794 49.8801 34.7493 50.0283 35.0214 50.2681L34.6172 50.7126C34.4084 50.5267 34.1944 50.4755 33.9698 50.4755C33.4467 50.4755 33.0477 50.9039 33.0477 51.4428C33.0477 51.9816 33.4361 52.4127 33.9698 52.4127C34.2578 52.4127 34.4983 52.2833 34.6594 52.1082V51.6637H34.1495V51.1868H35.2513V52.3615C34.9871 52.7575 34.5009 53 33.9593 53C33.0319 53 32.3713 52.3049 32.3713 51.4374Z" fill="white"/>
<path d="M40.0098 49.926H40.6571V52.9489H40.0098V49.926Z" fill="white"/>
<path d="M45.4578 49.926H46.0787L47.1117 51.362C47.2782 51.591 47.4684 51.917 47.4684 51.917V49.926H48.1158V52.9489H47.4896L46.4882 51.5668C46.29 51.2974 46.1051 50.9741 46.1051 50.9741V52.9489H45.4578V49.926Z" fill="white"/>
<path d="M52.9218 49.926H55.2707V50.4864H53.5692V51.1034H55.1809V51.6584H53.5692V52.3912H55.3341V52.9516H52.9192V49.9287L52.9218 49.926Z" fill="white"/>
<path d="M59.9948 49.926H62.3437V50.4864H60.6422V51.1034H62.2539V51.6584H60.6422V52.3912H62.4071V52.9516H59.9922V49.9287L59.9948 49.926Z" fill="white"/>
<path d="M67.0706 49.926H68.3573C69.2424 49.926 69.7048 50.4487 69.7048 51.098C69.7048 51.486 69.5066 51.8578 69.1341 52.0598L69.7603 52.9516H69.0152L68.5528 52.243C68.4656 52.2565 68.3863 52.2673 68.2991 52.2673H67.7205V52.9543H67.0732V49.9314L67.0706 49.926ZM68.3758 51.7042C68.7562 51.7042 69.0205 51.4294 69.0205 51.098C69.0205 50.7666 68.7562 50.481 68.3811 50.481H67.7179V51.7042H68.3758Z" fill="white"/>
<path d="M74.3708 49.926H75.0182V52.9489H74.3708V49.926Z" fill="white"/>
<path d="M79.8215 49.926H80.4424L81.4755 51.362C81.642 51.591 81.8322 51.917 81.8322 51.917V49.926H82.4795V52.9489H81.8533L80.852 51.5668C80.6538 51.2974 80.4689 50.9741 80.4689 50.9741V52.9489H79.8215V49.926Z" fill="white"/>
<path d="M87.1401 51.4374C87.1401 50.5752 87.798 49.8801 88.7254 49.8801C89.1482 49.8801 89.5181 50.0283 89.7902 50.2681L89.386 50.7126C89.1772 50.5267 88.9632 50.4755 88.7386 50.4755C88.2155 50.4755 87.8165 50.9039 87.8165 51.4428C87.8165 51.9816 88.2049 52.4127 88.7386 52.4127C89.0266 52.4127 89.2671 52.2833 89.4282 52.1082V51.6637H88.9183V51.1868H90.0201V52.3615C89.7559 52.7575 89.2697 53 88.7281 53C87.8007 53 87.1401 52.3049 87.1401 51.4374Z" fill="white"/>
<path d="M60.9753 5.19439V7.95862L63.1181 5.03004V18.4309L60.5077 22.0007H57.1099C57.8576 20.9769 58.608 19.9531 59.3557 18.9293V0C58.1086 1.70542 56.8615 3.41084 55.6118 5.11626V7.88049L57.7334 4.97885V18.3797L55.086 21.998H51.7886C52.5152 21.0039 53.2418 20.0097 53.971 19.0156V0.0889081C50.4015 4.97346 46.832 9.85802 43.2625 14.7426C43.2651 17.7116 43.2704 20.6806 43.273 23.6496H61.3188C62.4576 22.0923 63.599 20.5351 64.7377 18.9751V0.0484953C63.4827 1.762 62.2277 3.47819 60.9753 5.19169V5.19439ZM47.0064 12.3879V18.5468L44.8821 21.4511V15.2922L47.0064 12.3879ZM46.5017 21.998L48.4252 19.3685L48.626 19.0937V10.1732L52.3488 5.08393V18.4686L49.7648 21.998H46.5017Z" fill="white"/>
<path d="M7.90792 39.8416L11.6835 31.8345L15.0813 45.3054H12.5211L10.9067 38.2655L7.53009 45.494L4.15344 38.2466L2.53909 45.3054H0L3.37665 31.8345L7.15227 39.8416C7.32136 40.1649 7.42441 40.4478 7.53009 40.7334C7.63578 40.4478 7.75996 40.146 7.90792 39.8416Z" fill="white"/>
<path d="M25.383 43.2578H21.4806L20.7672 45.3081H18.0828L23.4542 31.8372L28.8046 45.3081H26.099L25.3856 43.2578H25.383ZM22.1094 41.4931H24.7727L23.5969 38.0203C23.5335 37.8694 23.4701 37.6404 23.4489 37.5084C23.4278 37.6216 23.3855 37.8694 23.3221 38.0203L22.1041 41.4931H22.1094Z" fill="white"/>
<path d="M40.6493 36.8645C40.6493 38.5915 39.9359 40.1649 38.4246 41.0567L41.1302 45.3054H38.3189L36.0123 41.7383C35.8248 41.8137 35.5922 41.8326 35.3412 41.8326C35.1721 41.8326 35.0057 41.8326 34.8366 41.8137V45.3054H32.2764V32.1955C33.3464 31.9288 34.1655 31.8345 35.4866 31.8345C39.0534 31.8345 40.6467 34.1488 40.6467 36.8618L40.6493 36.8645ZM34.8392 39.9009C35.0057 39.9386 35.1748 39.9386 35.3228 39.9386C37.1485 39.9386 38.0494 38.5726 38.0494 36.8645C38.0494 35.1564 37.1485 33.7527 35.3228 33.7527C35.1748 33.7527 35.0083 33.7716 34.8392 33.7904V39.9009Z" fill="white"/>
<path d="M45.1276 45.3053V32.0229H47.6879V38.2654L52.1135 32.0229H54.8824L50.2666 38.4917L55.1334 45.3026H52.2376L47.6852 38.7369V45.3026H45.125L45.1276 45.3053Z" fill="white"/>
<path d="M58.4968 45.3053V32.0229H61.0571V43.4059H64.4971V45.3026H58.4968V45.3053Z" fill="white"/>
<path d="M74.8014 43.2578H70.899L70.1856 45.3081H67.5012L72.8727 31.8372L78.223 45.3081H75.5175L74.8041 43.2578H74.8014ZM71.5278 41.4931H74.1911L73.0154 38.0203C72.952 37.8694 72.8885 37.6404 72.8674 37.5084C72.8463 37.6216 72.804 37.8694 72.7406 38.0203L71.5226 41.4931H71.5278Z" fill="white"/>
<path d="M84.0913 37.0908V45.3054H81.7002V31.8345L90.5117 40.278V32.0258H92.9029V45.4967L84.0913 37.0908Z" fill="white"/>
<path d="M97.9097 45.2865V32.0446C99.0009 31.9126 100.155 31.8372 101.014 31.8372C106.322 31.8372 108 35.0432 108 38.6669C108 42.2906 106.322 45.4967 100.993 45.4967C99.8173 45.4967 98.9797 45.4212 97.9097 45.2892V45.2865ZM100.47 43.5218C100.89 43.5596 101.12 43.5784 101.455 43.5784C104.14 43.5784 105.421 41.6628 105.421 38.6642C105.421 35.6656 104.121 33.75 101.477 33.75C101.183 33.75 100.7 33.7689 100.47 33.8255V43.5218Z" fill="white"/>
</g>
<defs>
<clipPath id="clip0_192_5418">
<rect width="108" height="53" fill="white"/>
</clipPath>
</defs>
</svg>
