<svg width="55" height="35" viewBox="0 0 55 35" fill="none" xmlns="http://www.w3.org/2000/svg">
<path d="M27.0624 15.2823C24.2225 15.2823 21.9174 12.9772 21.9174 10.1373V9.78068C22.414 9.58965 22.898 9.27127 23.3564 8.85101C23.6748 8.5581 23.7003 8.04869 23.4074 7.7303C23.1145 7.41192 22.6051 7.38645 22.2867 7.67936C21.8919 8.04868 21.4971 8.27792 21.115 8.3798C21.115 8.3798 21.1023 8.3798 21.0896 8.3798C21.0896 8.3798 21.0769 8.3416 21.0769 8.30339V6.73695C21.0769 3.89699 23.3819 1.59191 26.2219 1.59191H27.9157C30.7557 1.59191 33.0607 3.89699 33.0607 6.73695V6.91525C33.0607 6.91525 33.048 6.96619 33.0225 6.96619C28.2723 7.9086 25.8908 6.13839 25.0885 5.33607C24.7829 5.03043 24.2734 5.03043 23.9678 5.33607C23.6621 5.64172 23.6621 6.15113 23.9678 6.45678C26.4257 8.91468 30.017 8.96563 32.2075 8.69819V10.1245C32.2075 12.9645 29.9024 15.2696 27.0624 15.2696M27.0624 20.8731L24.1206 17.9185C24.3498 17.5365 24.4772 17.1035 24.4772 16.645V16.3266C25.2795 16.6577 26.1583 16.8488 27.0752 16.8488C27.9921 16.8488 28.8708 16.6577 29.6732 16.3266V16.645C29.6732 17.1035 29.8005 17.5365 30.017 17.9185L27.0752 20.8604L27.0624 20.8731ZM27.852 22.3249L31.2142 18.9628L35.7479 20.975C36.0536 21.1151 36.3337 21.3061 36.5629 21.5481L34.0286 24.0824C33.4046 24.7064 33.048 25.5469 33.048 26.4384V33.8631C33.048 34.2961 33.4046 34.6527 33.8376 34.6527C34.2706 34.6527 34.6272 34.2961 34.6272 33.8631V26.4384C34.6272 25.9672 34.8054 25.5342 35.1366 25.2031L37.2634 23.0763C37.2634 23.1654 37.2761 23.2546 37.2761 23.3437V33.8503C37.2761 34.2833 37.6327 34.6399 38.0657 34.6399C38.4987 34.6399 38.8553 34.2833 38.8553 33.8503V23.3437C38.8553 21.6882 37.8747 20.1854 36.3719 19.5232L31.7618 17.4728C31.4306 17.3327 31.2268 17.0016 31.2268 16.645V15.3842C32.7805 14.1489 33.7739 12.2513 33.7739 10.1245V8.3416C34.2833 8.06142 34.6272 7.51381 34.6272 6.90251V6.72422C34.6272 3.01826 31.6089 0 27.9029 0H26.2091C22.5032 0 19.485 3.01826 19.485 6.72422V8.29066C19.485 8.82554 19.7142 9.30948 20.1217 9.62786C20.1854 9.6788 20.2618 9.72974 20.3382 9.76795V10.1118C20.3382 12.2386 21.3315 14.1361 22.8852 15.3715V16.6323C22.8852 16.9888 22.6815 17.3072 22.3504 17.46L17.7402 19.5104C16.2375 20.1854 15.2568 21.6882 15.2568 23.331V33.8376C15.2568 34.2706 15.6134 34.6272 16.0464 34.6272C16.4794 34.6272 16.836 34.2706 16.836 33.8376V23.331C16.836 23.2419 16.836 23.1527 16.8487 23.0636L18.9755 25.1903C19.3066 25.5215 19.485 25.9545 19.485 26.4257V33.8503C19.485 34.2833 19.8415 34.6399 20.2745 34.6399C20.7075 34.6399 21.0641 34.2833 21.0641 33.8503V26.4257C21.0641 25.5342 20.7202 24.6937 20.0835 24.0696L17.5492 21.5353C17.7784 21.2934 18.0459 21.1023 18.3642 20.9622L22.898 18.9501L26.2601 22.3122" fill="white"/>
<path d="M8.41799 19.5232C6.04923 19.5232 4.12621 17.6002 4.12621 15.2314V15.0659C4.76298 14.9258 5.69265 14.5819 6.67326 13.7924C7.01712 14.1235 7.51382 14.5183 8.13785 14.8621C8.8765 15.2696 9.90798 15.639 11.1688 15.639C11.6527 15.639 12.1621 15.588 12.697 15.4607C12.5697 17.7148 10.6976 19.5105 8.41799 19.5105M8.41799 24.2735L6.58411 22.4396C6.63505 22.2358 6.66052 22.0193 6.66052 21.8028V20.835C7.20813 21.0132 7.80668 21.1024 8.40524 21.1024C9.0038 21.1024 9.60235 21.0132 10.15 20.835V21.8028C10.15 22.0193 10.1754 22.2358 10.2391 22.4396L8.40524 24.2735H8.41799ZM8.41799 9.24587C10.7867 9.24587 12.7098 11.1689 12.7098 13.5376V13.8306C9.41133 14.8366 7.43735 12.3278 7.36094 12.2259C7.22085 12.0476 7.01707 11.933 6.78784 11.9075C6.5586 11.8948 6.32939 11.9712 6.17657 12.1368C5.42519 12.9009 4.67384 13.2575 4.13896 13.4358C4.1899 11.1179 6.10018 9.2586 8.43074 9.2586M8.43074 5.87102C9.39862 5.87102 10.1755 6.66061 10.1755 7.61575C10.1755 7.71763 10.1754 7.83225 10.15 7.93413C9.60235 7.76857 9.02929 7.67943 8.43074 7.67943C7.83218 7.67943 7.25905 7.76857 6.71143 7.93413C6.69869 7.83225 6.68601 7.73037 6.68601 7.61575C6.68601 6.64787 7.47559 5.87102 8.43074 5.87102ZM14.3017 15.2442V13.5504C14.3017 11.4873 13.2319 9.66613 11.6018 8.6091C11.7037 8.29072 11.7546 7.9596 11.7546 7.61575C11.7546 5.78187 10.2646 4.27911 8.41799 4.27911C6.57138 4.27911 5.08136 5.76914 5.08136 7.61575C5.08136 7.9596 5.13229 8.29072 5.23417 8.6091C3.6168 9.6534 2.5343 11.4745 2.5343 13.5504V15.2442C2.5343 17.2436 3.54039 19.0138 5.08136 20.0836V21.8283C5.08136 22.1722 4.89031 22.4778 4.58466 22.6306L1.84663 24.006C0.71319 24.5791 0 25.7126 0 26.9861V33.8886C0 34.3216 0.356581 34.6782 0.78958 34.6782C1.22258 34.6782 1.57916 34.3216 1.57916 33.8886V27.3299L2.86543 28.6162C3.19655 28.9473 3.3748 29.3803 3.3748 29.8515V33.8886C3.3748 34.3216 3.73138 34.6782 4.16438 34.6782C4.59738 34.6782 4.95404 34.3216 4.95404 33.8886V29.8515C4.95404 28.96 4.61016 28.1195 3.9734 27.4955L2.17768 25.6998C2.17768 25.6998 2.165 25.6871 2.15226 25.6744C2.26688 25.5725 2.39422 25.4833 2.5343 25.4196L5.27242 24.0442C5.4125 23.9806 5.53985 23.8914 5.66721 23.8023L7.60291 25.738V26.3875C7.60291 26.8205 7.9595 27.1771 8.39249 27.1771C8.82549 27.1771 9.18207 26.8205 9.18207 26.3875V25.738L11.1179 23.8023C11.2452 23.8914 11.3726 23.9806 11.5126 24.0442L12.2641 24.4263C12.3787 24.49 12.4933 24.5154 12.6206 24.5154C12.9135 24.5154 13.1937 24.3499 13.3338 24.0824C13.5248 23.6877 13.372 23.2164 12.9772 23.0127L12.2258 22.6306C11.9202 22.4778 11.7291 22.1722 11.7291 21.8283V20.0836C13.2574 19.0265 14.2762 17.2563 14.2762 15.2442" fill="white"/>
<path d="M44.0131 17.8292C42.1155 17.8292 40.5618 16.2882 40.5618 14.3907V13.1172C41.1221 12.9007 41.7717 12.5441 42.4212 11.9837C43.249 12.4167 44.9937 13.1681 47.4516 13.4101V14.3907C47.4516 16.2882 45.9106 17.8292 44.0131 17.8292ZM44.0131 21.7389L42.1792 19.9051C42.2301 19.7013 42.2683 19.4848 42.2683 19.2683V19.1027C42.816 19.3065 43.4018 19.4211 44.0131 19.4211C44.6244 19.4211 45.2102 19.3065 45.7578 19.1027V19.2683C45.7578 19.4848 45.7833 19.7013 45.847 19.9051L44.0131 21.7389ZM39.7213 11.7418V11.0031C39.7213 9.10555 41.2623 7.56458 43.1598 7.56458H44.8536C46.7511 7.56458 48.2921 9.10555 48.2921 11.0031V11.8818C44.8408 11.6908 42.765 10.3536 42.7523 10.3409C42.6122 10.2517 42.4593 10.2135 42.3065 10.2135C42.1027 10.2135 41.899 10.2899 41.7462 10.4428C40.982 11.2069 40.2434 11.5635 39.7085 11.7418M52.2655 22.2993L47.8336 20.0833C47.528 19.9305 47.337 19.6249 47.337 19.281V18.1603C48.3812 17.2434 49.0308 15.8934 49.0308 14.4034V13.4992H49.0817C49.5147 13.4992 49.8713 13.1426 49.8713 12.7096V11.0158C49.8713 8.23956 47.6171 5.98541 44.8408 5.98541H43.1471C40.3708 5.98541 38.1166 8.23956 38.1166 11.0158V12.7096C38.1166 13.1554 38.4732 13.4992 38.9062 13.4992C38.9062 13.4992 38.9317 13.4992 38.9571 13.4992V14.4034C38.9571 15.8934 39.6194 17.2434 40.6509 18.1603V19.281C40.6509 19.6249 40.4599 19.9305 40.1542 20.0833C39.7595 20.2744 39.6067 20.7583 39.7977 21.1404C39.9378 21.4206 40.218 21.5861 40.5109 21.5861C40.6255 21.5861 40.7528 21.5606 40.8674 21.497C41.0075 21.4206 41.1349 21.3441 41.2622 21.255L43.198 23.1908V27.5207C43.198 27.9537 43.5546 28.3103 43.9876 28.3103C44.4206 28.3103 44.7772 27.9537 44.7772 27.5207V23.1908L46.7129 21.255C46.8403 21.3441 46.9676 21.4333 47.1077 21.497L51.3995 23.6365L50.1005 24.9355C49.4637 25.5722 49.1199 26.4 49.1199 27.2915V33.8629C49.1199 34.2959 49.4765 34.6525 49.9095 34.6525C50.3425 34.6525 50.6991 34.2959 50.6991 33.8629V27.2915C50.6991 26.8203 50.8773 26.3873 51.2084 26.0562L52.4438 24.8209C52.482 24.961 52.4947 25.1138 52.4947 25.2666V33.8629C52.4947 34.2959 52.8513 34.6525 53.2843 34.6525C53.7173 34.6525 54.0739 34.2959 54.0739 33.8629V25.2666C54.0739 23.9931 53.3735 22.8469 52.2273 22.2865" fill="white"/>
</svg>
