<svg width="6" height="11" viewBox="0 0 6 11" fill="none" xmlns="http://www.w3.org/2000/svg">
<path d="M0.585938 0.390625C0.632812 0.34375 0.679688 0.320312 0.773438 0.320312C0.84375 0.320312 0.914062 0.34375 0.984375 0.390625L5.88281 5.3125C5.92969 5.35938 5.97656 5.42969 5.97656 5.5C5.97656 5.59375 5.92969 5.64062 5.88281 5.6875L0.984375 10.6094C0.914062 10.6562 0.84375 10.6797 0.773438 10.6797C0.679688 10.6797 0.632812 10.6562 0.585938 10.6094L0.117188 10.1406C0.046875 10.0938 0.0234375 10.0469 0.0234375 9.95312C0.0234375 9.88281 0.046875 9.8125 0.117188 9.74219L4.35938 5.5L0.117188 1.25781C0.046875 1.21094 0.0234375 1.14062 0.0234375 1.04688C0.0234375 0.976562 0.046875 0.90625 0.117188 0.859375L0.585938 0.390625Z" fill="white"/>
</svg>
