<svg width="17" height="16" viewBox="0 0 17 16" fill="none" xmlns="http://www.w3.org/2000/svg">
<path d="M0.184519 14.9883L4.75499 10.6866C3.75294 9.55576 3.14818 8.10274 3.14818 6.51846C3.14818 2.92412 6.25508 0 10.0741 0C13.8931 0 17 2.92412 17 6.51846C17 10.1128 13.8931 13.0369 10.0741 13.0369C8.39078 13.0369 6.84693 12.4677 5.64544 11.5246L1.07481 15.8264C0.95188 15.9421 0.790695 16 0.629667 16C0.468639 16 0.307455 15.9421 0.184519 15.8264C-0.0615082 15.5948 -0.0615082 15.2197 0.184519 14.9883ZM15.7407 6.51846C15.7407 3.57774 13.1989 1.18517 10.0741 1.18517C6.94925 1.18517 4.40744 3.57774 4.40744 6.51846C4.40744 9.45917 6.94925 11.8517 10.0741 11.8517C13.1989 11.8517 15.7407 9.45917 15.7407 6.51846Z" fill="white" fill-opacity="0.6"/>
</svg>
