<svg width="58" height="58" viewBox="0 0 58 58" fill="none" xmlns="http://www.w3.org/2000/svg">
<path fill-rule="evenodd" clip-rule="evenodd" d="M0 24.612C0 23.6636 0.756433 22.8947 1.68954 22.8947H28.4711C36.3498 22.8947 42.7368 29.3866 42.7368 37.3947C42.737 45.4028 36.3499 51.8947 28.4711 51.8947H23.0902C10.3378 51.8947 0 41.3871 0 28.4254V24.612ZM3.37908 26.3293V28.4254C3.37908 39.4903 12.204 48.4601 23.0902 48.4601H28.4711C34.4837 48.4601 39.3579 43.506 39.3578 37.3947C39.3578 31.2834 34.4836 26.3293 28.4711 26.3293H3.37908Z" fill="#AFD5CD"/>
<path fill-rule="evenodd" clip-rule="evenodd" d="M32.0526 3.3795C26.4423 3.3795 21.8941 7.67499 21.8941 12.9737C21.8941 18.2724 26.4423 22.5679 32.0526 22.5679C37.6631 22.5679 42.2112 18.2724 42.2112 12.9737C42.2112 7.67499 37.663 3.3795 32.0526 3.3795ZM18.3158 12.9737C18.3158 5.80855 24.466 0 32.0526 0C39.6393 0 45.7895 5.80855 45.7895 12.9737C45.7895 20.1388 39.6394 25.9474 32.0526 25.9474C24.466 25.9474 18.3158 20.1388 18.3158 12.9737Z" fill="#AFD5CD"/>
<path fill-rule="evenodd" clip-rule="evenodd" d="M38.9447 4.50737C39.0974 3.56125 39.9743 2.92034 40.9033 3.07587C50.7637 4.72661 58 13.4064 58 23.5832V24.2112C58 25.1701 57.2368 25.9473 56.2953 25.9473H32.231C31.2895 25.9473 30.5263 25.1701 30.5263 24.2112C30.5263 23.2524 31.2895 22.4751 32.231 22.4751H54.5561C54.0575 14.4836 48.2029 7.81672 40.3503 6.5021C39.4213 6.34657 38.792 5.4535 38.9447 4.50737Z" fill="#AFD5CD"/>
<path fill-rule="evenodd" clip-rule="evenodd" d="M49.8707 9.18717C50.7265 9.01732 51.5521 9.60389 51.7148 10.4973L50.1653 10.8049C51.7148 10.4973 51.7149 10.498 51.715 10.4988L51.7153 10.5005L51.716 10.5044L51.7178 10.5143C51.7191 10.5218 51.7207 10.5313 51.7226 10.5426C51.7264 10.5651 51.7313 10.5952 51.737 10.6324C51.7484 10.7067 51.7631 10.8096 51.779 10.9389C51.8106 11.1971 51.8469 11.5613 51.8703 12.012C51.9169 12.9115 51.9129 14.1673 51.7129 15.6202C51.3127 18.5286 50.1178 22.277 46.9361 25.4852C46.3095 26.1169 45.311 26.0988 44.7059 25.4446C44.1007 24.7905 44.1181 23.748 44.7447 23.1163C47.2933 20.5465 48.2609 17.547 48.5905 15.1519C48.7555 13.9531 48.7582 12.9183 48.7204 12.1901C48.7016 11.827 48.6728 11.5431 48.65 11.3567C48.6386 11.2636 48.6287 11.1951 48.6223 11.1535C48.6191 11.1328 48.6168 11.1188 48.6156 11.1118C48.6153 11.1096 48.615 11.1081 48.6149 11.1074C48.4552 10.2157 49.0166 9.35671 49.8707 9.18717Z" fill="#AFD5CD"/>
<path fill-rule="evenodd" clip-rule="evenodd" d="M0 24.5444C0 23.6333 0.765606 22.8947 1.71003 22.8947H16.0876C24.0619 22.8947 30.5263 29.131 30.5263 36.8239C30.5263 43.3057 25.7956 48.7383 19.6486 50.3128C18.7358 50.5465 17.7994 50.0222 17.557 49.1416C17.3147 48.261 17.8582 47.3577 18.771 47.1239C23.5099 45.9101 27.1063 41.7209 27.1063 36.8239C27.1063 30.9532 22.173 26.1941 16.0876 26.1941H1.71003C0.765606 26.1941 0 25.4555 0 24.5444Z" fill="#AFD5CD"/>
<path fill-rule="evenodd" clip-rule="evenodd" d="M23.1567 47.3158C24.1443 47.3158 24.9449 48.1245 24.9449 49.1221V54.3873H33.317C34.3046 54.3873 35.1053 55.196 35.1053 56.1937C35.1053 57.1913 34.3046 58 33.317 58H23.1567C22.169 58 21.3684 57.1913 21.3684 56.1937V49.1221C21.3684 48.1245 22.169 47.3158 23.1567 47.3158Z" fill="#AFD5CD"/>
</svg>
