<svg class="path" width="1510" height="211" viewBox="0 0 1510 211" fill="none" xmlns="http://www.w3.org/2000/svg">
<path d="M1.46243 15.8332C1.3574 15.5778 1.06523 15.4559 0.809838 15.5609C0.554447 15.6659 0.43255 15.9581 0.537573 16.2135L1.46243 15.8332ZM440.612 104.344L440.895 104.756L440.612 104.344ZM999.613 75.8256L999.963 75.4687L999.941 75.4474L999.917 75.4289L999.613 75.8256ZM0.537573 16.2135C1.27864 18.0156 2.05257 19.8359 2.85938 21.6722L3.77492 21.27C2.97127 19.4408 2.20044 17.6278 1.46243 15.8332L0.537573 16.2135ZM7.93716 32.5476C9.67256 36.0581 11.5213 39.6094 13.4835 43.1878L14.3604 42.707C12.405 39.141 10.5627 35.6022 8.8336 32.1045L7.93716 32.5476ZM19.4653 53.584C21.4984 56.9569 23.6302 60.3417 25.8607 63.727L26.6957 63.1768C24.4727 59.8028 22.348 56.4293 20.3217 53.0678L19.4653 53.584ZM32.6553 73.6052C34.9606 76.8175 37.3553 80.0204 39.8394 83.2042L40.6278 82.589C38.1521 79.416 35.7654 76.2238 33.4678 73.0222L32.6553 73.6052ZM47.4056 92.5066C49.97 95.5314 52.6176 98.5295 55.3483 101.492L56.0837 100.815C53.3624 97.8621 50.724 94.8743 48.1684 91.8599L47.4056 92.5066ZM63.6626 110.139C66.4774 112.944 69.3709 115.707 72.3432 118.421L73.0175 117.682C70.0562 114.978 67.1732 112.225 64.3684 109.43L63.6626 110.139ZM81.3846 126.312C84.437 128.857 87.5644 131.348 90.7669 133.776L91.371 132.979C88.1812 130.56 85.0658 128.08 82.025 125.544L81.3846 126.312ZM100.485 140.787C103.763 143.035 107.112 145.216 110.534 147.323L111.058 146.471C107.651 144.373 104.315 142.201 101.05 139.962L100.485 140.787ZM120.899 153.354C124.385 155.266 127.94 157.101 131.564 158.853L131.999 157.953C128.391 156.209 124.851 154.381 121.38 152.477L120.899 153.354ZM142.51 163.795C146.167 165.332 149.889 166.783 153.676 168.143L154.014 167.202C150.244 165.848 146.539 164.403 142.898 162.873L142.51 163.795ZM165.052 171.889C168.848 173.027 172.706 174.074 176.624 175.025L176.86 174.053C172.959 173.107 169.119 172.064 165.339 170.931L165.052 171.889ZM188.37 177.543C192.264 178.27 196.215 178.902 200.222 179.434L200.354 178.442C196.364 177.913 192.43 177.284 188.553 176.56L188.37 177.543ZM212.111 180.699C216.05 181.017 220.04 181.238 224.083 181.36L224.113 180.36C220.087 180.239 216.113 180.019 212.191 179.703L212.111 180.699ZM236.133 181.423C240.059 181.348 244.033 181.179 248.053 180.912L247.987 179.914C243.982 180.18 240.024 180.348 236.113 180.423L236.133 181.423ZM259.98 179.847C263.927 179.405 267.916 178.87 271.949 178.238L271.794 177.25C267.776 177.88 263.801 178.413 259.869 178.853L259.98 179.847ZM283.658 176.155C287.528 175.385 291.436 174.526 295.382 173.577L295.148 172.605C291.215 173.551 287.32 174.406 283.463 175.174L283.658 176.155ZM307.001 170.55C310.776 169.491 314.584 168.35 318.426 167.124L318.122 166.171C314.291 167.394 310.494 168.531 306.73 169.587L307.001 170.55ZM329.886 163.251C333.557 161.941 337.258 160.555 340.989 159.09L340.623 158.159C336.903 159.62 333.211 161.003 329.55 162.309L329.886 163.251ZM352.191 154.493C355.773 152.959 359.381 151.355 363.016 149.676L362.597 148.769C358.97 150.443 355.37 152.044 351.797 153.573L352.191 154.493ZM373.939 144.451C377.431 142.722 380.946 140.927 384.485 139.063L384.019 138.178C380.488 140.038 376.979 141.83 373.495 143.555L373.939 144.451ZM395.161 133.273C398.554 131.379 401.968 129.423 405.404 127.403L404.897 126.541C401.468 128.557 398.06 130.509 394.673 132.4L395.161 133.273ZM415.774 121.153C419.096 119.102 422.437 116.992 425.797 114.822L425.255 113.982C421.9 116.148 418.565 118.255 415.249 120.302L415.774 121.153ZM435.834 108.2C437.517 107.067 439.204 105.919 440.895 104.756L440.329 103.932C438.64 105.093 436.955 106.239 435.276 107.371L435.834 108.2ZM440.895 104.756C442.56 103.611 444.223 102.478 445.885 101.356L445.326 100.527C443.661 101.651 441.996 102.786 440.329 103.932L440.895 104.756ZM455.843 94.7558C459.173 92.5895 462.499 90.4674 465.819 88.3887L465.288 87.5412C461.963 89.6229 458.633 91.7481 455.298 93.9175L455.843 94.7558ZM476.048 82.111C479.452 80.064 482.85 78.0623 486.242 76.1052L485.742 75.239C482.345 77.1991 478.941 79.2039 475.532 81.254L476.048 82.111ZM496.682 70.2102C500.172 68.2832 503.654 66.403 507.129 64.5688L506.662 63.6844C503.182 65.5215 499.694 67.4048 496.199 69.3349L496.682 70.2102ZM517.745 59.0964C521.315 57.3001 524.876 55.552 528.429 53.8513L527.998 52.9493C524.438 54.6529 520.871 56.4039 517.295 58.2031L517.745 59.0964ZM539.227 48.8154C542.871 47.1605 546.506 45.5549 550.131 43.9977L549.736 43.0789C546.105 44.6388 542.464 46.2471 538.814 47.9049L539.227 48.8154ZM561.113 39.4151C564.825 37.9115 568.526 36.4583 572.216 35.0544L571.861 34.1198C568.164 35.5262 564.456 36.982 560.738 38.4882L561.113 39.4151ZM583.381 30.9438C587.153 29.6011 590.913 28.3094 594.66 27.0677L594.346 26.1185C590.592 27.3625 586.825 28.6565 583.045 30.0017L583.381 30.9438ZM606.001 23.4492C609.825 22.2758 613.635 21.154 617.431 20.0826L617.159 19.1202C613.356 20.1936 609.539 21.3175 605.707 22.4932L606.001 23.4492ZM628.937 16.9765C632.804 15.9799 636.655 15.0353 640.49 14.1412L640.263 13.1674C636.421 14.0632 632.562 15.0097 628.687 16.0081L628.937 16.9765ZM652.146 11.5674C656.046 10.7542 659.928 9.99282 663.792 9.28194L663.611 8.29844C659.74 9.01075 655.85 9.77362 651.942 10.5885L652.146 11.5674ZM675.58 7.25893C679.512 6.63267 683.424 6.05823 687.315 5.53408L687.182 4.54303C683.283 5.06825 679.363 5.64385 675.423 6.27137L675.58 7.25893ZM699.185 4.08228C703.155 3.64588 707.103 3.26136 711.026 2.92704L710.941 1.93065C707.01 2.26566 703.054 2.65097 699.076 3.08827L699.185 4.08228ZM722.902 2.06227C726.902 1.82059 730.876 1.63061 734.823 1.49047L734.787 0.491099C730.832 0.631534 726.85 0.821913 722.842 1.06409L722.902 2.06227ZM746.682 1.21666C750.698 1.17386 754.684 1.18215 758.64 1.2395L758.655 0.239605C754.691 0.182133 750.696 0.173827 746.672 0.21671L746.682 1.21666ZM770.543 1.56172C774.532 1.71995 778.488 1.92751 782.41 2.18223L782.475 1.18433C778.544 0.929074 774.58 0.72107 770.583 0.562505L770.543 1.56172ZM794.326 3.10834C798.308 3.46894 802.254 3.87756 806.161 4.33178L806.276 3.33847C802.361 2.88327 798.407 2.47378 794.416 2.11241L794.326 3.10834ZM817.954 5.85532C821.932 6.42102 825.868 7.03331 829.761 7.6895L829.927 6.70341C826.026 6.0458 822.082 5.43219 818.095 4.86528L817.954 5.85532ZM841.474 9.81967C845.394 10.5849 849.266 11.3939 853.089 12.2436L853.306 11.2674C849.474 10.4158 845.594 9.60511 841.665 8.8382L841.474 9.81967ZM864.728 14.991C868.627 15.9657 872.471 16.9817 876.258 18.0357L876.526 17.0723C872.73 16.016 868.878 14.9977 864.971 14.0208L864.728 14.991ZM887.674 21.3773C891.504 22.5541 895.27 23.7685 898.972 25.0166L899.292 24.069C895.581 22.818 891.806 21.6009 887.968 20.4214L887.674 21.3773ZM910.245 28.9915C914.033 30.3869 917.746 31.8158 921.382 33.2737L921.754 32.3455C918.109 30.8842 914.387 29.4518 910.59 28.0531L910.245 28.9915ZM932.377 37.8682C936.083 39.4808 939.698 41.1208 943.222 42.7825L943.648 41.8781C940.116 40.212 936.491 38.5678 932.776 36.9512L932.377 37.8682ZM953.904 48.0279C957.519 49.8755 961.023 51.7418 964.411 53.6197L964.896 52.7451C961.498 50.8617 957.984 48.9901 954.359 47.1375L953.904 48.0279ZM974.722 59.5788C978.233 61.6951 981.596 63.8164 984.806 65.9325L985.357 65.0976C982.135 62.9738 978.76 60.8455 975.238 58.7224L974.722 59.5788ZM994.611 72.7147C996.226 73.8895 997.793 75.0593 999.309 76.2223L999.917 75.4289C998.394 74.2606 996.821 73.0857 995.199 71.9059L994.611 72.7147ZM999.263 76.1825C1000.64 77.5293 1002.03 78.8821 1003.45 80.2399L1004.14 79.5174C1002.73 78.1625 1001.33 76.8126 999.963 75.4687L999.263 76.1825ZM1012.12 88.3423C1015 90.9673 1017.96 93.604 1020.99 96.2459L1021.65 95.4918C1018.62 92.8549 1015.67 90.2233 1012.8 87.6035L1012.12 88.3423ZM1029.96 103.887C1032.96 106.381 1036.02 108.874 1039.13 111.36L1039.76 110.578C1036.64 108.096 1033.59 105.608 1030.6 103.119L1029.96 103.887ZM1048.49 118.657C1051.6 121.029 1054.76 123.391 1057.98 125.737L1058.57 124.929C1055.36 122.587 1052.2 120.23 1049.1 117.862L1048.49 118.657ZM1067.6 132.599C1070.82 134.845 1074.08 137.072 1077.39 139.275L1077.94 138.443C1074.64 136.243 1071.38 134.021 1068.17 131.779L1067.6 132.599ZM1087.32 145.732C1090.63 147.834 1093.98 149.909 1097.37 151.954L1097.89 151.097C1094.51 149.057 1091.16 146.985 1087.86 144.888L1087.32 145.732ZM1107.59 157.958C1111 159.913 1114.45 161.834 1117.93 163.718L1118.41 162.838C1114.93 160.958 1111.49 159.041 1108.08 157.09L1107.59 157.958ZM1128.41 169.22C1131.92 171.01 1135.46 172.759 1139.03 174.464L1139.46 173.562C1135.9 171.861 1132.36 170.115 1128.86 168.329L1128.41 169.22ZM1149.77 179.425C1153.38 181.03 1157 182.587 1160.65 184.092L1161.04 183.167C1157.39 181.666 1153.77 180.113 1150.18 178.512L1149.77 179.425ZM1171.67 188.447C1175.36 189.845 1179.07 191.187 1182.8 192.471L1183.13 191.525C1179.4 190.245 1175.7 188.906 1172.02 187.512L1171.67 188.447ZM1194.06 196.145C1197.83 197.309 1201.62 198.41 1205.43 199.444L1205.69 198.479C1201.9 197.448 1198.12 196.35 1194.35 195.189L1194.06 196.145ZM1216.91 202.35C1220.76 203.25 1224.62 204.079 1228.49 204.834L1228.68 203.852C1224.82 203.1 1220.98 202.274 1217.14 201.376L1216.91 202.35ZM1240.15 206.872C1244.06 207.475 1247.97 207.999 1251.9 208.439L1252.01 207.446C1248.1 207.007 1244.2 206.485 1240.3 205.883L1240.15 206.872ZM1263.69 209.508C1267.63 209.779 1271.58 209.961 1275.52 210.053L1275.55 209.053C1271.62 208.962 1267.69 208.78 1263.76 208.51L1263.69 209.508ZM1287.37 210.05C1291.31 209.955 1295.26 209.765 1299.2 209.476L1299.13 208.478C1295.2 208.766 1291.27 208.955 1287.34 209.05L1287.37 210.05ZM1310.99 208.311C1314.9 207.825 1318.8 207.237 1322.7 206.544L1322.52 205.56C1318.64 206.249 1314.76 206.834 1310.87 207.319L1310.99 208.311ZM1334.31 204.16C1338.14 203.266 1341.96 202.266 1345.77 201.157L1345.49 200.197C1341.7 201.301 1337.89 202.296 1334.08 203.186L1334.31 204.16ZM1357.03 197.547C1360.74 196.245 1364.44 194.834 1368.13 193.312L1367.75 192.387C1364.08 193.903 1360.4 195.307 1356.7 196.603L1357.03 197.547ZM1378.93 188.511C1382.46 186.827 1385.97 185.035 1389.47 183.133L1389 182.255C1385.51 184.148 1382.01 185.932 1378.5 187.609L1378.93 188.511ZM1399.77 177.189C1403.08 175.161 1406.38 173.028 1409.66 170.79L1409.1 169.964C1405.83 172.193 1402.55 174.317 1399.25 176.336L1399.77 177.189ZM1419.35 163.825C1422.44 161.492 1425.5 159.06 1428.55 156.528L1427.92 155.759C1424.88 158.281 1421.82 160.703 1418.75 163.027L1419.35 163.825ZM1437.54 148.723C1440.41 146.118 1443.26 143.42 1446.1 140.626L1445.39 139.914C1442.57 142.698 1439.73 145.387 1436.87 147.982L1437.54 148.723ZM1454.39 132.111C1457.04 129.282 1459.67 126.365 1462.28 123.358L1461.53 122.702C1458.92 125.7 1456.3 128.607 1453.66 131.427L1454.39 132.111ZM1469.92 114.238C1472.35 111.231 1474.77 108.143 1477.16 104.971L1476.36 104.369C1473.97 107.531 1471.57 110.611 1469.14 113.609L1469.92 114.238ZM1484.21 95.3154C1486.43 92.1738 1488.63 88.9577 1490.82 85.6658L1489.98 85.1129C1487.81 88.3968 1485.61 91.6049 1483.39 94.7384L1484.21 95.3154ZM1497.32 75.5617C1499.35 72.3071 1501.36 68.9837 1503.35 65.5906L1502.49 65.0836C1500.5 68.4694 1498.49 71.7854 1496.47 75.0326L1497.32 75.5617ZM1509.26 55.2596C1510.23 53.5028 1511.2 51.7287 1512.17 49.9369L1511.29 49.4621C1510.33 51.2504 1509.36 53.021 1508.38 54.7742L1509.26 55.2596Z" fill="white" fill-opacity="0.6"/>
</svg>
