<svg width="56" height="56" viewBox="0 0 56 56" fill="none" xmlns="http://www.w3.org/2000/svg">
<g clip-path="url(#clip0_330_2591)">
<path d="M7.68909 31.6884C8.39215 31.7757 9.09997 31.817 9.80779 31.8154C16.7368 31.8154 23.7118 27.9303 26.4273 26.2512L23.0469 56.0003H33.6689L30.3203 26.4258C33.1722 28.3572 40.244 32.6089 47.2826 32.6089C47.738 32.6089 48.1935 32.6089 48.649 32.5549L49.0981 32.5184L49.4981 31.6138L49.2203 31.2536C43.9355 24.4531 33.1881 22.0551 31.09 21.6409C30.9614 21.36 30.79 21.1013 30.5837 20.8712C31.0487 18.7826 33.1722 7.97487 29.0649 0.399934L28.8491 0H27.8381L27.6191 0.399934C23.5246 7.98598 25.6433 18.7826 26.1019 20.8712C25.9242 21.0695 25.7718 21.287 25.6528 21.5234C23.5341 21.8472 12.6946 23.7945 7.12728 30.3648L6.84003 30.7076L7.19235 31.6345L7.68909 31.6884ZM31.3312 23.2422C33.9959 23.8357 42.2977 26.0195 47.0858 31.0917C40.1171 30.9949 32.8881 26.3639 30.6504 24.8022C31.0202 24.3579 31.2566 23.8183 31.3265 23.2422H31.3312ZM28.3682 24.3468C27.5525 24.3484 26.8907 23.6897 26.8859 22.874C26.8843 22.0583 27.543 21.3965 28.3587 21.3917C29.1744 21.3901 29.8362 22.0487 29.8394 22.8645C29.8394 22.8661 29.8394 22.8676 29.8394 22.8708C29.8394 23.6834 29.1792 24.3468 28.3635 24.3468H28.3682ZM31.9851 54.4672H24.7482L24.9386 52.7516H31.7867L31.9851 54.4672ZM25.1132 51.2566L28 25.8481C28.1191 25.8672 28.2413 25.8799 28.3635 25.883C28.4841 25.8814 28.6063 25.8719 28.7269 25.8545L31.6153 51.2566H25.1132ZM28.3587 2.44721C31.0741 8.84457 29.7442 17.3209 29.1982 20.0015C28.6444 19.8348 28.0524 19.8348 27.4985 20.0015C26.9827 17.3209 25.6576 8.85092 28.3635 2.42182L28.3587 2.44721ZM25.3846 23.1168C25.4322 23.6945 25.6464 24.2436 26.0019 24.7007C23.7499 26.1322 16.6209 30.2982 9.7824 30.2982H9.31263C14.3086 25.4339 22.6945 23.5977 25.3846 23.1168Z" fill="#AFD5CD"/>
</g>
<defs>
<clipPath id="clip0_330_2591">
<rect width="56" height="56" fill="white"/>
</clipPath>
</defs>
</svg>
