<svg width="42" height="43" viewBox="0 0 42 43" fill="none" xmlns="http://www.w3.org/2000/svg">
<path d="M15.4025 15.1539H12.235C11.8779 15.1539 11.5984 15.4178 11.5984 15.7594C11.5984 16.101 11.8934 16.365 12.235 16.365H15.4025V18.3213H9.06759V13.1199H15.4025V15.1539ZM9.03654 11.9088C8.35337 11.9088 7.7944 12.4367 7.7944 13.0888V18.3679C7.7944 19.02 8.35337 19.5479 9.03654 19.5479H15.449C16.1322 19.5479 16.6912 19.02 16.6912 18.3679V13.0888C16.6912 12.4367 16.1322 11.9088 15.449 11.9088H9.03654Z" fill="white"/>
<path d="M32.1557 15.1539H28.9883C28.6311 15.1539 28.3517 15.4178 28.3517 15.7594C28.3517 16.101 28.6467 16.365 28.9883 16.365H32.1557V18.3213H25.8208V13.1199H32.1557V15.1539ZM25.7898 11.9088C25.1066 11.9088 24.5476 12.4367 24.5476 13.0888V18.3679C24.5476 19.02 25.1066 19.5479 25.7898 19.5479H32.2023C32.8855 19.5479 33.4444 19.02 33.4444 18.3679V13.0888C33.4444 12.4367 32.8855 11.9088 32.2023 11.9088H25.7898Z" fill="white"/>
<path d="M40.0898 25.1377V29.1125C40.0898 29.2677 40.0122 29.392 39.9035 29.4696C39.888 29.4851 39.8569 29.5006 39.8259 29.5162C39.8259 29.5162 39.8103 29.5162 39.7948 29.5317C39.7948 29.5317 39.7793 29.5317 39.7638 29.5317C39.7638 29.5317 39.7482 29.5317 39.7327 29.5317C39.7017 29.5317 39.6706 29.5317 39.6396 29.5317H36.2703V25.0911H40.1364L40.0898 25.1377ZM39.6551 35.9908C39.6551 36.4876 39.2359 36.8758 38.708 36.8758H36.2237V30.7738H39.6551V35.9753V35.9908ZM34.935 24.5321V37.7298C34.935 39.7327 33.2115 41.363 31.0844 41.363H10.1855C8.05834 41.363 6.33488 39.7327 6.33488 37.7298V20.8057C7.31306 21.5044 8.46203 21.9547 9.68864 22.11V24.9358C9.68864 26.2866 10.8531 27.3735 12.2816 27.3735C13.71 27.3735 14.8745 26.2711 14.8745 24.9358V22.1876H26.4264V24.9358C26.4264 26.2866 27.5909 27.3735 29.0193 27.3735C30.4478 27.3735 31.6123 26.2711 31.6123 24.9358V22.11C32.8389 21.9547 33.9879 21.5044 34.966 20.8057V24.5321H34.935ZM5.04616 29.5783H1.67688C1.67688 29.5783 1.61477 29.5783 1.58372 29.5783C1.58372 29.5783 1.56819 29.5783 1.55267 29.5783C1.55267 29.5783 1.53714 29.5783 1.52161 29.5783C1.52161 29.5783 1.50609 29.5783 1.49056 29.5783C1.45951 29.5628 1.42845 29.5472 1.41293 29.5317C1.30424 29.4541 1.22661 29.3143 1.22661 29.1746V25.1998H5.09275V29.6404L5.04616 29.5783ZM15.1074 3.29165L16.5359 2.00294V7.11121H15.1074V3.29165ZM17.8246 3.83508H23.4453V7.11121H17.8246V3.81956V3.83508ZM17.8246 1.19555H23.4453V2.624H17.8246V1.19555ZM24.734 3.22954V2.00294L26.1624 3.29165V7.11121H24.734V3.21402V3.22954ZM41.3785 25.0445C41.3785 24.439 40.8506 23.9421 40.1985 23.9421H36.2237V19.6567C37.2484 18.4767 37.8695 16.9551 37.8695 15.3093V13.7721C37.8695 13.4306 37.5745 13.1666 37.2329 13.1666C36.8913 13.1666 36.5963 13.4461 36.5963 13.7721V15.3093C36.5963 18.1041 34.4381 20.4486 31.6123 20.8989V20.3399C31.6123 19.9983 31.3173 19.7344 30.9757 19.7344C30.6341 19.7344 30.3391 19.9983 30.3391 20.3399V24.9513C30.3391 25.6345 29.7491 26.1779 29.0348 26.1779C28.3206 26.1779 27.7306 25.6345 27.7306 24.9513V20.3399C27.7306 19.9983 27.4511 19.7344 27.094 19.7344C26.7369 19.7344 26.4574 19.9983 26.4574 20.3399V20.9765H14.9056V20.3399C14.9056 19.9983 14.6261 19.7344 14.269 19.7344C13.9119 19.7344 13.6324 19.9983 13.6324 20.3399V24.9513C13.6324 25.6345 13.0424 26.1779 12.3282 26.1779C11.6139 26.1779 11.0239 25.6345 11.0239 24.9513V20.3399C11.0239 19.9983 10.7444 19.7344 10.3873 19.7344C10.0302 19.7344 9.75074 19.9983 9.75074 20.3399V20.8989C6.92489 20.4331 4.76668 18.1041 4.76668 15.3093V9.47126C4.76668 8.88125 5.23249 8.39992 5.83803 8.33781C5.83803 8.33781 5.86908 8.33781 5.8846 8.33781C5.91566 8.33781 5.94671 8.33781 5.97777 8.33781H9.76627V11.1171C9.76627 11.4587 10.0613 11.7226 10.4029 11.7226C10.7444 11.7226 11.0395 11.4587 11.0395 11.1171V8.33781H13.6479V11.1171C13.6479 11.4587 13.9429 11.7226 14.2845 11.7226C14.6261 11.7226 14.9211 11.4587 14.9211 11.1171V8.33781H26.4729V11.1171C26.4729 11.4587 26.768 11.7226 27.1095 11.7226C27.4511 11.7226 27.7461 11.4587 27.7461 11.1171V8.33781H30.3546V11.1171C30.3546 11.4587 30.6341 11.7226 30.9912 11.7226C31.3483 11.7226 31.6278 11.4587 31.6278 11.1171V8.33781H35.4163C35.4163 8.33781 35.4784 8.33781 35.5095 8.33781C35.5095 8.33781 35.5405 8.33781 35.556 8.33781C36.1616 8.39992 36.6274 8.88125 36.6274 9.47126V11.2879C36.6274 11.6295 36.9069 11.8934 37.264 11.8934C37.6211 11.8934 37.9006 11.6139 37.9006 11.2879V9.47126C37.9006 8.30676 37 7.34411 35.8355 7.15779C35.7734 7.14226 35.6958 7.12674 35.6181 7.12674H27.4822V3.0277C27.4822 2.8569 27.4046 2.70164 27.2803 2.59295L24.5632 0.13974C24.5476 0.124213 24.5321 0.108687 24.5011 0.09316C24.47 0.0776334 24.4545 0.0621066 24.4234 0.0465799C24.4079 0.0465799 24.3768 0.0310533 24.3613 0.0155266C24.3303 0.0155266 24.3147 0.0155267 24.2837 0C24.2837 0 24.2837 0 24.2682 0C24.2526 0 24.2216 0 24.2061 0C24.2061 0 24.1905 0 24.175 0H17.2346C17.2346 0 17.2191 0 17.2035 0C17.188 0 17.157 0 17.1414 0C17.1414 0 17.1414 0 17.1259 0C17.0949 0 17.0638 -1.44603e-08 17.0483 0.0155266C17.0172 0.0155266 17.0017 0.0310533 16.9862 0.0465799C16.9551 0.0465799 16.9396 0.0776334 16.9085 0.09316C16.893 0.09316 16.8775 0.124213 16.8464 0.13974L14.1293 2.59295C14.005 2.70164 13.9274 2.87243 13.9274 3.0277V7.09568H5.79144C5.79144 7.09568 5.6517 7.09568 5.57407 7.12674C4.39404 7.31306 3.50903 8.29123 3.50903 9.44021V15.2782C3.50903 16.9241 4.13009 18.4301 5.15485 19.6257V23.911H1.18003C0.52791 23.911 0 24.4079 0 25.0134V29.0814C0 29.5006 0.170797 29.8888 0.43475 30.1838V32.4507C0.43475 32.7923 0.729757 33.0562 1.07134 33.0562C1.41293 33.0562 1.70794 32.7923 1.70794 32.4507V30.7738H5.13933V36.8758H2.65506C2.12716 36.8758 1.70794 36.4721 1.70794 35.9908V34.9505C1.70794 34.6244 1.42846 34.345 1.07134 34.345C0.71423 34.345 0.43475 34.6089 0.43475 34.9505V35.9908C0.43475 37.1553 1.42845 38.1024 2.67059 38.1024H5.17038C5.37223 40.6022 7.59254 42.5896 10.2942 42.5896H31.1931C33.8947 42.5896 36.115 40.6022 36.3169 38.1024H38.8166C40.0433 38.1024 41.0525 37.1553 41.0525 35.9908V30.1993C41.3164 29.9043 41.4872 29.5162 41.4872 29.097V25.029L41.3785 25.0445Z" fill="white"/>
<path d="M31.8296 29.0036V29.9974C31.8296 30.8668 31.0844 31.5655 30.1683 31.5655H24.8426C23.9266 31.5655 23.1813 30.8668 23.1813 29.9974V29.0036H31.8296ZM31.8296 36.7825C31.8296 37.357 31.3328 37.8228 30.7272 37.8228H24.2837C23.6781 37.8228 23.1813 37.357 23.1813 36.7825V32.2953C23.6626 32.6058 24.2371 32.7921 24.8426 32.7921H30.1683C30.7894 32.7921 31.3638 32.6058 31.8296 32.2953V36.7825ZM21.877 29.0036V36.7825C21.877 38.0246 22.9484 39.0494 24.2682 39.0494H30.7117C32.0315 39.0494 33.1028 38.0402 33.1028 36.7825V29.0036C33.1028 28.336 32.5283 27.777 31.8141 27.777H23.1658C22.4515 27.777 21.877 28.3205 21.877 29.0036Z" fill="white"/>
<path d="M18.1041 29.9974C18.1041 30.8668 17.3588 31.5655 16.4427 31.5655H11.1171C10.201 31.5655 9.45573 30.8668 9.45573 29.9974V29.0036H18.1041V29.9974ZM18.1041 36.7825C18.1041 37.357 17.6072 37.8228 17.0017 37.8228H10.5581C9.95258 37.8228 9.45573 37.357 9.45573 36.7825V32.2953C9.93706 32.6058 10.5115 32.7921 11.1171 32.7921H16.4427C17.0638 32.7921 17.6383 32.6058 18.1041 32.2953V36.7825ZM18.1041 27.777H9.45573C8.74151 27.777 8.16702 28.3205 8.16702 29.0036V36.7825C8.16702 38.0246 9.23836 39.0494 10.5581 39.0494H17.0017C18.3215 39.0494 19.3928 38.0402 19.3928 36.7825V29.0036C19.3928 28.336 18.8183 27.777 18.1041 27.777Z" fill="white"/>
</svg>
