<svg width="38" height="40" viewBox="0 0 38 40" fill="none" xmlns="http://www.w3.org/2000/svg">
<path d="M29.9067 28.3579C29.9067 28.3579 29.9067 28.2376 29.9067 28.1625C29.9067 22.118 24.9899 17.2012 18.9454 17.2012C12.901 17.2012 7.98412 22.118 7.98412 28.1625C7.98412 28.2226 7.98412 28.2978 7.98412 28.3579H2.34562V11.6228H35.5452V28.3579H29.9067ZM18.9454 36.8232C14.164 36.8232 10.2847 32.9439 10.2847 28.1625C10.2847 23.381 14.164 19.5017 18.9454 19.5017C23.7269 19.5017 27.6061 23.381 27.6061 28.1625C27.6061 32.9439 23.7269 36.8232 18.9454 36.8232ZM9.03666 4.60103V5.63851C9.03666 6.27002 9.54792 6.79629 10.1945 6.79629C10.841 6.79629 11.3522 6.28506 11.3522 5.63851V4.60103H17.8027V5.63851C17.8027 6.27002 18.3138 6.79629 18.9604 6.79629C19.6069 6.79629 20.1182 6.28506 20.1182 5.63851V4.60103H26.8543V5.63851C26.8543 6.27002 27.3656 6.79629 28.0121 6.79629C28.6587 6.79629 29.1699 6.28506 29.1699 5.63851V4.60103H35.5753V9.32234H2.37572V4.60103H9.06676H9.03666ZM36.703 2.30052H29.1398V1.15778C29.1398 0.526267 28.6286 0 27.982 0C27.3355 0 26.8243 0.511231 26.8243 1.15778V2.30052H20.0881V1.15778C20.0881 0.526267 19.5769 0 18.9304 0C18.2838 0 17.7726 0.511231 17.7726 1.15778V2.30052H11.3222V1.15778C11.3222 0.526267 10.8109 0 10.1644 0C9.51781 0 9.00656 0.511231 9.00656 1.15778V2.30052H1.1578C0.52629 2.30052 0 2.81174 0 3.45829V29.5157C0 30.1472 0.511254 30.6735 1.1578 30.6735H8.2398C9.3675 35.5151 13.7279 39.1388 18.9153 39.1388C24.1028 39.1388 28.4632 35.5151 29.5909 30.6735H36.6729C37.3044 30.6735 37.8307 30.1622 37.8307 29.5157V3.45829C37.8307 2.82678 37.3194 2.30052 36.6729 2.30052" fill="white"/>
<path d="M20.0881 28.448V22.8697C20.0881 22.2382 19.5769 21.7119 18.9304 21.7119C18.2838 21.7119 17.7726 22.2231 17.7726 22.8697V28.9292C17.7726 29.2299 17.8928 29.5306 18.1184 29.7411L20.7647 32.3875C20.9903 32.613 21.2911 32.7183 21.5767 32.7183C21.8624 32.7183 22.1631 32.598 22.3887 32.3875C22.8397 31.9364 22.8397 31.1996 22.3887 30.7636L20.0731 28.448H20.0881Z" fill="white"/>
</svg>
