<svg width="66" height="40" viewBox="0 0 66 40" fill="none" xmlns="http://www.w3.org/2000/svg">
<path d="M16.9861 38.1489C13.6634 38.1489 10.9618 35.3076 10.9618 31.8141C10.9618 28.3206 13.6634 25.4792 16.9861 25.4792C20.3089 25.4792 23.0105 28.3206 23.0105 31.8141C23.0105 35.3076 20.3089 38.1489 16.9861 38.1489ZM16.9861 23.6315C12.7008 23.6315 9.20728 27.2958 9.20728 31.8141C9.20728 36.3323 12.7008 39.9966 16.9861 39.9966C21.2715 39.9966 24.765 36.3323 24.765 31.8141C24.765 27.2958 21.2715 23.6315 16.9861 23.6315Z" fill="white"/>
<path d="M16.9862 33.786C15.9459 33.786 15.092 32.901 15.092 31.7986C15.092 30.6962 15.9459 29.8112 16.9862 29.8112C18.0265 29.8112 18.8649 30.6962 18.8649 31.7986C18.8649 32.901 18.0265 33.786 16.9862 33.786ZM16.9862 27.9791C14.9832 27.9791 13.3529 29.7025 13.3529 31.7986C13.3529 33.8947 14.9832 35.6182 16.9862 35.6182C18.9891 35.6182 20.6195 33.9103 20.6195 31.7986C20.6195 29.687 18.9891 27.9791 16.9862 27.9791Z" fill="white"/>
<path d="M53.3495 38.1489C50.0268 38.1489 47.3252 35.3076 47.3252 31.8141C47.3252 28.3206 50.0268 25.4792 53.3495 25.4792C56.6723 25.4792 59.3739 28.3206 59.3739 31.8141C59.3739 35.3076 56.6723 38.1489 53.3495 38.1489ZM53.3495 23.6315C49.0642 23.6315 45.5707 27.2958 45.5707 31.8141C45.5707 36.3323 49.0642 39.9966 53.3495 39.9966C57.6349 39.9966 61.1284 36.3323 61.1284 31.8141C61.1284 27.2958 57.6349 23.6315 53.3495 23.6315Z" fill="white"/>
<path d="M53.3496 33.786C52.3093 33.786 51.4553 32.901 51.4553 31.7986C51.4553 30.6962 52.3093 29.8112 53.3496 29.8112C54.3898 29.8112 55.2283 30.6962 55.2283 31.7986C55.2283 32.901 54.3898 33.786 53.3496 33.786ZM53.3496 27.9791C51.3466 27.9791 49.7164 29.7025 49.7164 31.7986C49.7164 33.8947 51.3466 35.6182 53.3496 35.6182C55.3525 35.6182 56.9828 33.9103 56.9828 31.7986C56.9828 29.687 55.3525 27.9791 53.3496 27.9791Z" fill="white"/>
<path d="M44.1267 26.4574L44.0802 26.5506H26.2556L26.209 26.4574C24.3458 22.9329 20.8057 20.7436 16.9862 20.7436C13.1666 20.7436 9.62653 22.9329 7.76333 26.4574L7.7168 26.5506H7.25092V18.2283H33.1339V24.0353H41.6114C44.7633 24.0353 47.3252 21.3491 47.3252 18.042V12.7784L43.4281 3.24507L44.7168 2.57741L49.9959 12.2971L57.992 14.8124V18.042C57.992 19.7499 59.3118 21.1318 60.9421 21.1318H63.5196V26.5506H62.619L62.5724 26.4574C60.7092 22.9329 57.1691 20.7436 53.3496 20.7436C49.53 20.7436 45.9899 22.9329 44.1267 26.4574ZM7.26646 13.8653H33.1494V16.3806H7.26646V13.8653ZM7.26646 4.09904H8.13595C9.7352 4.09904 11.0394 5.46537 11.0394 7.14225V12.0332H7.26646V4.09904ZM19.7033 4.09904H20.5728C22.1721 4.09904 23.4763 5.46537 23.4763 7.14225V12.0332H19.7033V4.09904ZM32.1402 4.09904H33.0097C34.6089 4.09904 35.9132 5.46537 35.9132 7.14225V12.0332H32.1402V4.09904ZM45.5862 13.8653V18.0264C45.5862 20.3244 43.8162 22.1876 41.627 22.1876H34.9039V13.8653H45.5862ZM59.7776 15.3403L62.1998 16.1011C63.0072 16.3496 63.5506 17.1104 63.5506 17.9954V19.2686H60.9732C60.3211 19.2686 59.7776 18.7096 59.7776 18.0109V15.3248V15.3403ZM5.52749 21.6597C5.52749 21.9547 5.29456 22.1876 5.01508 22.1876H2.25138C1.9719 22.1876 1.73898 21.9547 1.73898 21.6597V10.0457C1.73898 9.75074 1.9719 9.51782 2.25138 9.51782H5.01508C5.29456 9.51782 5.52749 9.75074 5.52749 10.0457V21.6597ZM53.3651 22.5757C56.7344 22.5757 59.8552 24.6408 61.3148 27.8548L61.5477 28.3827H65.2896V18.0109C65.2896 17.2812 65.1033 16.5825 64.7306 15.9769C64.2648 15.2006 63.5351 14.6261 62.6966 14.3466L51.1914 10.7134L45.431 0.108674L41.1923 2.34452L45.136 12.0176H37.6677V7.12673C37.6677 4.42509 35.5871 2.23582 33.0252 2.23582H32.1557V0.0310363H30.4012V12.0021H25.2464V7.11121C25.2464 4.40957 23.1658 2.2203 20.5884 2.2203H19.7189V0.0155181H17.9644V11.9866H12.8095V7.09567C12.8095 4.39403 10.7289 2.20478 8.15149 2.20478H7.28201V0H5.52749V7.67015L5.34117 7.63911C5.21696 7.62359 5.12377 7.60805 5.01508 7.60805H2.25138C1.00925 7.60805 0 8.66386 0 9.98363V21.5976C0 22.9018 1.00925 23.9731 2.25138 23.9731H5.01508C5.10824 23.9731 5.21696 23.9732 5.34117 23.9421L5.52749 23.911V28.3206H8.81913L9.05207 27.7927C10.5116 24.5787 13.6324 22.5137 17.0017 22.5137C20.371 22.5137 23.4918 24.5787 24.9513 27.7927L25.1843 28.3206H45.1825L45.4155 27.7927C46.875 24.5787 49.9958 22.5137 53.3651 22.5137" fill="white"/>
<path d="M55.958 16.3807H49.3748V18.2128H55.958V16.3807Z" fill="white"/>
<path d="M37.9938 14.9213H35.5561V16.7689H37.9938V14.9213Z" fill="white"/>
</svg>
