<svg width="19" height="19" viewBox="0 0 19 19" fill="none" xmlns="http://www.w3.org/2000/svg">
<path fill-rule="evenodd" clip-rule="evenodd" d="M9.5 0C4.26016 0 0 4.26016 0 9.5C0 14.7398 4.26016 19 9.5 19C14.7398 19 19 14.7398 19 9.5C19 4.26016 14.7398 0 9.5 0ZM14.0941 7.13613L8.52773 12.7025C8.4127 12.8176 8.26055 12.877 8.1084 12.877C7.95625 12.877 7.8041 12.8176 7.68906 12.7025L4.90586 9.91934C4.67578 9.68926 4.67578 9.31074 4.90586 9.08066C5.13594 8.85059 5.51445 8.85059 5.74453 9.08066L8.1084 11.4445L13.2555 6.29746C13.4855 6.06367 13.8641 6.06367 14.0941 6.29746C14.3242 6.52754 14.3242 6.90605 14.0941 7.13613Z" fill="#009D85"/>
</svg>
