<svg width="280" height="47" viewBox="0 0 280 47" fill="none" xmlns="http://www.w3.org/2000/svg">
<path d="M61.4204 37.45H66.5903V38.6473H62.8477V39.9708H66.4V41.1682H62.8477V42.7437H66.7331V43.9411H61.4204V37.45Z" fill="#003A40"/>
<path d="M76.9937 37.45H78.3575L80.6253 40.538C80.99 41.0264 81.4182 41.7353 81.4182 41.7353V37.4657H82.8455V43.9568H81.4816L79.2773 40.9949C78.8333 40.4119 78.4368 39.7187 78.4368 39.7187V43.9568H77.0095V37.45H76.9937Z" fill="#003A40"/>
<path d="M93.1213 40.6954C93.1213 38.8363 94.5645 37.3553 96.6102 37.3553C97.5459 37.3553 98.3547 37.6704 98.9573 38.1904L98.0692 39.1357C97.6093 38.7418 97.1336 38.6315 96.642 38.6315C95.4843 38.6315 94.612 39.5453 94.612 40.7112C94.612 41.8771 95.4684 42.7909 96.642 42.7909C97.2763 42.7909 97.7996 42.5073 98.1644 42.1449V41.1996H97.0384V40.1755H99.4648V42.6963C98.878 43.5471 97.8155 44.067 96.6102 44.067C94.5803 44.0513 93.1213 42.5703 93.1213 40.6954Z" fill="#003A40"/>
<path d="M109.948 37.45H111.375V43.9411H109.948V37.45Z" fill="#003A40"/>
<path d="M121.953 37.45H123.316L125.584 40.538C125.949 41.0264 126.377 41.7353 126.377 41.7353V37.4657H127.804V43.9568H126.425L124.22 40.9949C123.776 40.4119 123.38 39.7187 123.38 39.7187V43.9568H121.953V37.45Z" fill="#003A40"/>
<path d="M138.398 37.45H143.568V38.6473H139.825V39.9708H143.378V41.1682H139.825V42.7437H143.711V43.9411H138.398V37.45Z" fill="#003A40"/>
<path d="M153.971 37.45H159.141V38.6473H155.399V39.9708H158.951V41.1682H155.399V42.7437H159.284V43.9411H153.971V37.45Z" fill="#003A40"/>
<path d="M169.561 37.45H172.399C174.35 37.45 175.365 38.5686 175.365 39.9708C175.365 40.8058 174.921 41.6093 174.112 42.0347L175.492 43.9411H173.842L172.827 42.4128C172.637 42.4443 172.463 42.4601 172.272 42.4601H171.004V43.9253H169.576V37.45H169.561ZM172.431 41.2784C173.271 41.2784 173.842 40.6798 173.842 39.9708C173.842 39.2618 173.256 38.6473 172.431 38.6473H170.972V41.2784H172.431Z" fill="#003A40"/>
<path d="M185.641 37.45H187.068V43.9411H185.641V37.45Z" fill="#003A40"/>
<path d="M197.646 37.45H199.01L201.278 40.538C201.642 41.0264 202.071 41.7353 202.071 41.7353V37.4657H203.498V43.9568H202.118L199.914 40.9949C199.47 40.4119 199.073 39.7187 199.073 39.7187V43.9568H197.646V37.45Z" fill="#003A40"/>
<path d="M213.774 40.6954C213.774 38.8363 215.217 37.3553 217.263 37.3553C218.198 37.3553 219.007 37.6704 219.61 38.1904L218.722 39.1357C218.262 38.7418 217.786 38.6315 217.295 38.6315C216.137 38.6315 215.265 39.5453 215.265 40.7112C215.265 41.8771 216.121 42.7909 217.295 42.7909C217.929 42.7909 218.452 42.5073 218.817 42.1449V41.1996H217.691V40.1755H220.117V42.6963C219.531 43.5471 218.468 44.067 217.263 44.067C215.233 44.0513 213.774 42.5703 213.774 40.6954Z" fill="#003A40"/>
<path d="M35.8564 10.2408V15.6921L40.2016 9.90997V36.3471L34.9207 43.3896H28.0381C29.5605 41.3729 31.0671 39.3563 32.5895 37.3396V0C30.068 3.37159 27.5306 6.72743 25.0091 10.099V15.5503L29.3067 9.83119V36.2683L23.9465 43.4053H17.2542C18.729 41.4517 20.2039 39.4823 21.6787 37.5287V0.189061C14.4472 9.83119 7.23154 19.4576 0 29.0997C0 34.9606 0.0158586 40.8058 0.0158586 46.6667H36.5541C38.8536 43.5944 41.169 40.5222 43.4685 37.4499V0.110286C40.947 3.46613 38.3937 6.85348 35.8564 10.2408ZM7.58043 24.4204V36.5676L3.28274 42.3025V30.1553L7.58043 24.4204ZM6.56547 43.3896L10.4667 38.2062L10.879 37.6705V20.072L18.4119 10.036V36.4416L13.1785 43.4053H6.56547V43.3896Z" fill="#009D85"/>
<path d="M77.3583 18.4807L85.0021 2.67834L91.8848 29.2572H86.7149L83.448 15.377L76.5971 29.6196L69.762 15.3297L66.4951 29.2572H61.3569L68.192 2.67834L75.8359 18.465C76.1689 19.0952 76.3909 19.6624 76.5971 20.2295C76.8191 19.6781 77.0728 19.0794 77.3583 18.4807Z" fill="#003A40"/>
<path d="M112.739 25.2082H104.841L103.398 29.2572H97.9587L108.838 2.67834L119.669 29.2572H114.198L112.739 25.2082ZM106.11 21.7263H111.502L109.123 14.8728C108.996 14.5735 108.869 14.1166 108.822 13.8645C108.774 14.0851 108.695 14.5735 108.568 14.8728L106.11 21.7263Z" fill="#003A40"/>
<path d="M143.647 12.6041C143.647 16.0072 142.204 19.1109 139.144 20.8755L144.615 29.2572H138.922L134.259 22.2147C133.879 22.3565 133.403 22.4038 132.895 22.4038C132.562 22.4038 132.213 22.4038 131.88 22.3722V29.2572H126.695V3.38733C128.867 2.86741 130.517 2.67834 133.197 2.67834C140.428 2.67834 143.647 7.24733 143.647 12.6041ZM131.88 18.591C132.213 18.6698 132.562 18.6698 132.864 18.6698C136.559 18.6698 138.382 15.9757 138.382 12.6041C138.382 9.23247 136.559 6.45957 132.864 6.45957C132.562 6.45957 132.229 6.49108 131.88 6.53835V18.591Z" fill="#003A40"/>
<path d="M152.719 29.2572V3.0564H157.905V15.3611L166.865 3.0564H172.479L163.138 15.818L172.986 29.2572H167.119L157.905 16.3065V29.2572H152.719Z" fill="#003A40"/>
<path d="M179.79 29.2572V3.0564H184.975V25.5074H191.937V29.2572H179.79Z" fill="#003A40"/>
<path d="M212.791 25.2082H204.894L203.45 29.2572H198.011L208.89 2.67834L219.721 29.2572H214.25L212.791 25.2082ZM206.162 21.7263H211.554L209.175 14.8728C209.048 14.5735 208.922 14.1166 208.874 13.8645C208.826 14.0851 208.747 14.5735 208.62 14.8728L206.162 21.7263Z" fill="#003A40"/>
<path d="M231.6 13.0452V29.2572H226.763V2.67834L244.604 19.3315V3.05647H249.441V29.6196L231.6 13.0452Z" fill="#003A40"/>
<path d="M259.574 29.21V3.08798C261.778 2.82014 264.125 2.67834 265.854 2.67834C276.606 2.67834 280 8.99615 280 16.149C280 23.3018 276.606 29.6196 265.822 29.6196C263.443 29.6196 261.731 29.4778 259.574 29.21ZM264.76 25.7281C265.616 25.8069 266.076 25.8384 266.758 25.8384C272.197 25.8384 274.782 22.0571 274.782 16.149C274.782 10.2408 272.15 6.45957 266.805 6.45957C266.219 6.45957 265.235 6.49108 264.76 6.61712V25.7281Z" fill="#003A40"/>
</svg>
