<svg width="156" height="104" viewBox="0 0 156 104" fill="none" xmlns="http://www.w3.org/2000/svg">
<path d="M77.6849 102.553C104.709 102.553 126.616 79.9449 126.616 52.056C126.616 24.1671 104.709 1.55865 77.6849 1.55865C50.6608 1.55865 28.7534 24.1671 28.7534 52.056C28.7534 79.9449 50.6608 102.553 77.6849 102.553Z" fill="#F0C020"/>
<path d="M123.767 31.9849C121.259 25.8166 117.635 20.3194 113.052 15.5892C108.468 10.8591 103.111 7.11974 97.1647 4.53095C90.9708 1.84628 84.4363 0.471985 77.685 0.471985C70.9336 0.471985 64.3681 1.84628 58.2052 4.53095C56.5639 5.26604 54.9844 6.06505 53.405 6.92798C53.1263 7.08778 53.0643 7.43934 53.2501 7.69503L53.9934 8.65384C54.1483 8.8456 54.427 8.90952 54.6438 8.78168C62.5719 4.24331 71.8937 1.97412 81.7729 2.83705C105.248 4.88251 123.829 24.3464 125.44 48.6043C127.329 77.1449 105.557 101.051 78.4282 101.435C51.361 101.882 29.2489 78.8708 29.8683 50.9374C30.209 36.2995 36.7125 23.1958 46.8395 14.3747C47.0563 14.183 47.0872 13.8634 46.9014 13.6397L46.1891 12.6808C46.0033 12.4571 45.6936 12.3932 45.4768 12.585C44.3929 13.5438 43.34 14.5345 42.3799 15.5253C37.7964 20.2554 34.173 25.7846 31.6335 31.9529C29.0321 38.3131 27.7004 45.0567 27.7004 52.056C27.7004 59.0553 29.0321 65.799 31.6335 72.1591C34.1421 78.3274 37.7655 83.8246 42.3799 88.5547C46.9634 93.2849 52.3211 97.0242 58.2672 99.613C64.4301 102.298 70.9646 103.672 77.7469 103.672C84.5292 103.672 91.0327 102.298 97.2266 99.613C103.204 97.0242 108.53 93.2849 113.114 88.5547C117.697 83.8246 121.321 78.2955 123.829 72.1591C126.431 65.799 127.762 59.0553 127.762 52.056C127.7 45.0886 126.369 38.345 123.767 31.9849Z" fill="black"/>
<path d="M77.7778 80.1812C71.2432 80.1812 64.8326 77.4006 60.0014 72.4148C54.7056 66.9816 51.8564 59.4709 52.1971 51.8324C52.228 51.0333 52.9094 50.3941 53.6836 50.4261C54.4578 50.4581 55.0772 51.1292 55.0463 51.9602C54.7675 58.7997 57.307 65.4794 62.0453 70.3374C66.5978 75.0356 72.7297 77.5285 78.8617 77.2089C84.622 76.9212 90.2584 74.0768 94.3154 69.4425C98.5582 64.5526 100.726 58.2883 100.385 51.7365C100.354 50.9375 100.943 50.2343 101.717 50.2024C102.491 50.1704 103.173 50.7777 103.204 51.5767C103.606 58.8956 101.191 65.9269 96.4213 71.3921C91.8688 76.6016 85.5201 79.7977 79.0165 80.1173C78.552 80.1812 78.1804 80.1812 77.7778 80.1812Z" fill="black"/>
<path d="M61.0543 40.7741C60.4659 40.7741 59.9704 40.2628 59.9704 39.6555V37.3863C59.9704 37.1626 59.9704 36.9709 59.9704 36.7791C59.9394 35.5966 59.9084 34.2542 60.8375 32.9438C61.7666 31.6015 63.377 30.6747 64.8325 30.6427C66.3191 30.6427 67.7746 31.4737 68.8586 32.9119C69.8496 34.2542 69.8186 35.6285 69.7876 36.843C69.7876 37.0028 69.7876 37.1946 69.7876 37.3544V39.6236C69.7876 40.2308 69.2921 40.7422 68.7037 40.7422C68.1153 40.7422 67.6198 40.2308 67.6198 39.6236V37.3544C67.6198 37.1626 67.6198 36.9709 67.6198 36.8111C67.6507 35.6285 67.6198 34.9254 67.1243 34.2542C66.4739 33.3913 65.6068 32.848 64.8325 32.848C64.0893 32.8799 63.0983 33.4552 62.5718 34.2223C62.1072 34.8934 62.0763 35.5966 62.1072 36.7152C62.1072 36.9389 62.1072 37.1626 62.1072 37.3863V39.6555C62.1072 40.2628 61.6427 40.7741 61.0543 40.7741Z" fill="black"/>
<path d="M86.6967 40.7741C86.1083 40.7741 85.6128 40.2628 85.6128 39.6555V37.3863C85.6128 37.1626 85.6128 36.9709 85.6128 36.7791C85.5818 35.5966 85.5509 34.2542 86.4799 32.9438C87.409 31.6015 88.9885 30.6747 90.475 30.6427C91.9615 30.6427 93.4171 31.4737 94.501 32.9119C95.492 34.2542 95.4611 35.6285 95.4301 36.843C95.4301 37.0028 95.4301 37.1946 95.4301 37.3544V39.6236C95.4301 40.2308 94.9346 40.7422 94.3462 40.7422C93.7577 40.7422 93.2622 40.2308 93.2622 39.6236V37.3544C93.2622 37.1626 93.2622 36.9709 93.2622 36.8111C93.2932 35.6285 93.2622 34.9254 92.7667 34.2542C92.1164 33.3913 91.2492 32.848 90.475 32.848C89.7317 32.8799 88.7407 33.4552 88.2142 34.2223C87.7497 34.8934 87.7187 35.5966 87.7497 36.7152C87.7497 36.9389 87.7497 37.1626 87.7497 37.3863V39.6555C87.7807 40.2628 87.2852 40.7741 86.6967 40.7741Z" fill="black"/>
<path d="M49.9984 11.6262C50.597 11.6262 51.0823 11.1254 51.0823 10.5076C51.0823 9.8898 50.597 9.38898 49.9984 9.38898C49.3997 9.38898 48.9144 9.8898 48.9144 10.5076C48.9144 11.1254 49.3997 11.6262 49.9984 11.6262Z" fill="black"/>
<path d="M13.0829 81.5873L8.37558 90.7599L10.7292 80.6604L0.788086 78.9026L10.8531 78.1036L9.39756 67.8124L13.2687 77.4005L22.2808 72.8302L14.6314 79.5418L21.6614 87.0205L13.0829 81.5873Z" fill="#F0C020"/>
<path d="M8.37557 91.3032C8.31363 91.3032 8.25169 91.3032 8.18976 91.2713C7.942 91.1754 7.78715 90.8877 7.84909 90.6321L10.0789 81.1079L0.695175 79.4459C0.416451 79.414 0.230635 79.1583 0.261604 78.8706C0.261604 78.583 0.47839 78.3593 0.757114 78.3593L10.2337 77.6242L8.87108 67.9402C8.84011 67.6525 8.99496 67.3969 9.27368 67.3329C9.52144 67.269 9.80016 67.3969 9.92404 67.6525L13.5475 76.6973L22.064 72.3827C22.3118 72.2548 22.5905 72.3507 22.7453 72.5744C22.9002 72.7982 22.8383 73.1178 22.6524 73.3095L15.4366 79.6696L22.064 86.7009C22.2498 86.8927 22.2808 87.2123 22.095 87.436C21.9401 87.6597 21.6304 87.7237 21.3827 87.5639L13.2997 82.4502L8.87108 91.1115C8.7472 91.2073 8.56139 91.3032 8.37557 91.3032ZM5.12379 79.0944L10.8221 80.1171C10.977 80.149 11.1009 80.2449 11.1938 80.3728C11.2867 80.5006 11.2867 80.6604 11.2557 80.8202L9.89307 86.605L12.5874 81.3316C12.6493 81.2037 12.7732 81.1079 12.9281 81.0439C13.0829 81.012 13.2378 81.012 13.3616 81.1079L18.3167 84.24L14.2597 79.9253C14.1668 79.8294 14.1049 79.6696 14.1049 79.5098C14.1049 79.35 14.1668 79.2222 14.2907 79.1263L18.6884 75.2591L13.4855 77.8799C13.3616 77.9438 13.2068 77.9438 13.0519 77.9118C12.9281 77.8479 12.8042 77.752 12.7422 77.5922L10.5434 72.095L11.3796 77.9757C11.4106 78.1355 11.3486 78.2953 11.2557 78.3912C11.1628 78.5191 11.0389 78.583 10.8841 78.583L5.12379 79.0944Z" fill="black"/>
<path d="M142.194 76.6016L133.399 81.6513L140.738 74.5561L133.337 67.4609L142.194 72.4467L146.437 63.0184L144.579 73.2457L154.582 74.4922L144.579 75.8026L146.499 85.9979L142.194 76.6016Z" fill="#F0C020"/>
<path d="M146.499 86.5411C146.282 86.5411 146.096 86.4133 146.003 86.2215L141.946 77.3685L133.646 82.1306C133.399 82.2584 133.12 82.1945 132.965 81.9708C132.81 81.7471 132.841 81.4275 133.027 81.2357L139.933 74.524L132.996 67.8763C132.81 67.6845 132.779 67.3649 132.934 67.1412C133.089 66.9175 133.399 66.8535 133.615 66.9814L141.977 71.6796L145.972 62.7946C146.096 62.5389 146.375 62.4111 146.623 62.5069C146.87 62.6028 147.025 62.8585 146.994 63.1461L145.229 72.7982L154.644 73.9807C154.922 74.0127 155.108 74.2364 155.108 74.524C155.108 74.8117 154.922 75.0354 154.644 75.0674L145.229 76.3138L147.056 85.9339C147.118 86.2215 146.963 86.4772 146.684 86.5731C146.623 86.5411 146.561 86.5411 146.499 86.5411ZM142.194 76.0581C142.256 76.0581 142.318 76.0581 142.349 76.0901C142.504 76.122 142.597 76.2499 142.658 76.3777L145.136 81.7471L144.021 75.9303C143.99 75.7705 144.021 75.6107 144.114 75.5148C144.207 75.387 144.331 75.323 144.486 75.2911L150.215 74.524L144.486 73.8209C144.331 73.7889 144.207 73.725 144.114 73.5972C144.021 73.4693 143.99 73.3095 144.021 73.1817L145.105 67.3329L142.689 72.7342C142.628 72.8621 142.504 72.9899 142.38 73.0219C142.225 73.0539 142.07 73.0539 141.946 72.9899L136.836 70.1135L141.079 74.1725C141.203 74.2683 141.265 74.4281 141.265 74.5879C141.265 74.7478 141.203 74.8756 141.11 75.0034L136.929 79.0624L141.946 76.186C142.039 76.0901 142.132 76.0581 142.194 76.0581Z" fill="black"/>
<g opacity="0.4">
<path d="M98.3416 89.3536C97.9699 89.3536 97.6293 89.1619 97.4125 88.8103C97.1028 88.2989 97.2576 87.5958 97.7841 87.2762C107.323 81.3316 113.981 71.8074 116.49 60.4934C118.967 49.4032 117.109 38.1851 111.318 28.9166C99.7352 10.4435 75.1455 4.75458 56.533 16.2603C56.0374 16.5799 55.3561 16.3882 55.0464 15.8768C54.7367 15.3654 54.9226 14.6623 55.4181 14.3427C75.0217 2.26168 100.912 8.23826 113.114 27.7021C119.153 37.3541 121.166 49.4671 118.596 60.9728C115.932 72.8621 108.964 82.8657 98.899 89.1299C98.7442 89.3217 98.5274 89.3536 98.3416 89.3536Z" fill="white"/>
</g>
<g opacity="0.4">
<path d="M48.9765 22.9721C48.6977 22.9721 48.388 22.8442 48.1713 22.6205C47.7687 22.1731 47.7996 21.4699 48.2642 21.0545L51.7327 17.8265C52.1663 17.411 52.8476 17.4429 53.2502 17.9223C53.6528 18.3698 53.6219 19.0729 53.1573 19.4884L49.6888 22.7164C49.5029 22.8762 49.2552 22.9721 48.9765 22.9721Z" fill="white"/>
</g>
</svg>
