<svg width="50" height="50" viewBox="0 0 50 50" fill="none" xmlns="http://www.w3.org/2000/svg">
<g clip-path="url(#clip0_151_858)">
<path d="M2.63142 13.1581H0V0H13.1581V2.63142H2.63142V13.1581Z" fill="white"/>
<path d="M2.25644 0.386475L20.1661 18.2966L18.3056 20.1575L0.395508 2.2474L2.25644 0.386475Z" fill="white"/>
<path d="M49.9999 13.1581H47.3684V2.63142H36.8423V0H49.9999V13.1581Z" fill="white"/>
<path d="M47.7524 0.395142L49.6129 2.25607L31.7027 20.1662L29.8423 18.3053L47.7524 0.395142Z" fill="white"/>
<path d="M13.1581 49.9999H0V36.8423H2.63142V47.3684H13.1581V49.9999Z" fill="white"/>
<path d="M18.2854 29.8447L20.1463 31.7057L2.23617 49.6158L0.375244 47.7549L18.2854 29.8447Z" fill="white"/>
<path d="M49.9999 49.9999H36.8423V47.3684H47.3684V36.8423H49.9999V49.9999Z" fill="white"/>
<path d="M31.7061 29.8534L49.6163 47.7635L47.7553 49.624L29.8452 31.7143L31.7061 29.8534Z" fill="white"/>
</g>
<defs>
<clipPath id="clip0_151_858">
<rect width="50" height="50" fill="white"/>
</clipPath>
</defs>
</svg>
