<svg width="19" height="18" viewBox="0 0 19 18" fill="none" xmlns="http://www.w3.org/2000/svg">
<path d="M9.54286 6.5629C8.1582 6.5629 7.03572 7.65421 7.03572 9.0004C7.03572 10.3466 8.1582 11.4379 9.54286 11.4379C10.9275 11.4379 12.05 10.3466 12.05 9.0004C12.05 7.65421 10.9275 6.5629 9.54286 6.5629Z" fill="white"/>
<path fill-rule="evenodd" clip-rule="evenodd" d="M5.50793 2.3115C8.16791 2.02247 10.9178 2.02247 13.5778 2.3115C15.0423 2.47063 16.2235 3.59247 16.3954 5.02126C16.7134 7.66501 16.7134 10.3358 16.3954 12.9795C16.2235 14.4083 15.0423 15.5302 13.5778 15.6893C10.9178 15.9783 8.16791 15.9783 5.50793 15.6893C4.04345 15.5302 2.86225 14.4083 2.69036 12.9795C2.37232 10.3358 2.37232 7.66501 2.69036 5.02126C2.86225 3.59247 4.04345 2.47063 5.50793 2.3115ZM13.4 4.5004C12.974 4.5004 12.6286 4.83619 12.6286 5.2504C12.6286 5.66461 12.974 6.0004 13.4 6.0004C13.826 6.0004 14.1714 5.66461 14.1714 5.2504C14.1714 4.83619 13.826 4.5004 13.4 4.5004ZM5.87857 9.0004C5.87857 7.03289 7.51913 5.4379 9.54286 5.4379C11.5666 5.4379 13.2071 7.03289 13.2071 9.0004C13.2071 10.9679 11.5666 12.5629 9.54286 12.5629C7.51913 12.5629 5.87857 10.9679 5.87857 9.0004Z" fill="white"/>
</svg>
