<svg width="14" height="14" viewBox="0 0 14 14" fill="none" xmlns="http://www.w3.org/2000/svg">
<g clip-path="url(#clip0_177_1609)">
<path d="M5.80186 10.672L4.15447 12.3194C3.47222 13.0016 2.36287 13.0016 1.68062 12.3194C0.998371 11.6371 0.998371 10.5278 1.68062 9.8455L4.98094 6.54518C5.66319 5.86293 6.77254 5.86293 7.45479 6.54518C7.68221 6.7726 8.05384 6.7726 8.28126 6.54518C8.50867 6.31777 8.50867 5.94614 8.28126 5.71872C7.14417 4.58163 5.2971 4.58163 4.16002 5.71872L0.854156 9.01904C-0.282928 10.1561 -0.282928 12.0032 0.854156 13.1403C1.99124 14.2774 3.83831 14.2774 4.98094 13.1403L6.62832 11.4929C6.85574 11.2655 6.85574 10.8938 6.62832 10.6664C6.40091 10.439 6.02927 10.439 5.80186 10.6664V10.672Z" fill="#003A40"/>
<path d="M13.1457 0.854217C12.0087 -0.282867 10.1616 -0.282867 9.01896 0.854217L7.03877 2.83441C6.81136 3.06182 6.81136 3.43346 7.03877 3.66087C7.26619 3.88829 7.63782 3.88829 7.86524 3.66087L9.84543 1.68068C10.5277 0.998432 11.637 0.998432 12.3193 1.68068C13.0015 2.36293 13.0015 3.47228 12.3193 4.15453L8.6917 7.78211C8.00945 8.46436 6.9001 8.46436 6.21785 7.78211C5.99044 7.55469 5.6188 7.55469 5.39139 7.78211C5.16397 8.00953 5.16397 8.38116 5.39139 8.60857C6.52847 9.74566 8.37554 9.74566 9.51262 8.60857L13.1402 4.981C14.2773 3.84392 14.2773 1.99685 13.1402 0.859763L13.1457 0.854217Z" fill="#003A40"/>
</g>
<defs>
<clipPath id="clip0_177_1609">
<rect width="14" height="14" fill="white"/>
</clipPath>
</defs>
</svg>
