<svg width="16" height="13" viewBox="0 0 16 13" fill="none" xmlns="http://www.w3.org/2000/svg">
<path d="M9.14769 6.14326L15.1427 0.147008C15.3391 -0.0493365 15.6571 -0.0490065 15.8532 0.148024C16.0491 0.345029 16.0486 0.664163 15.8522 0.86066L10.214 6.50002L15.8524 12.1394C16.0488 12.3359 16.0493 12.6548 15.8534 12.8518C15.7551 12.9506 15.6263 13 15.4975 13C15.3691 13 15.2408 12.9509 15.1427 12.8529L9.14769 6.85676C9.05309 6.76236 9 6.63388 9 6.50002C9 6.36617 9.05324 6.23784 9.14769 6.14326Z" fill="#003A40"/>
<path d="M0.147687 6.14326L6.14267 0.147008C6.33908 -0.0493365 6.65709 -0.0490065 6.85318 0.148024C7.04912 0.345029 7.04861 0.664163 6.85217 0.86066L1.21403 6.50002L6.85237 12.1394C7.04879 12.3359 7.04929 12.6548 6.85338 12.8518C6.75508 12.9506 6.62631 13 6.49753 13C6.36908 13 6.24081 12.9509 6.14269 12.8529L0.147687 6.85676C0.0530856 6.76236 -1.85899e-07 6.63388 -1.85899e-07 6.50002C-1.85899e-07 6.36617 0.0532375 6.23784 0.147687 6.14326Z" fill="#009D85"/>
</svg>
