<svg width="61" height="61" viewBox="0 0 61 61" fill="none" xmlns="http://www.w3.org/2000/svg">
<path d="M57.1875 56.2344H53.8635V25.2816L54.9715 17.9902C55.4004 15.1666 54.6141 11.0086 53.1844 8.53047L52.1121 6.67188C50.8135 4.43203 48.24 2.85938 45.8572 2.85938C45.4879 2.85938 45.1305 2.89512 44.7969 2.97852L40.901 3.84824C40.6031 3.91973 40.3529 4.12227 40.2338 4.39629C40.1147 4.67031 40.1266 4.99199 40.2814 5.2541L43.3791 10.6154L30.4047 18.1094C28.7129 18.1451 27.2355 19.0506 26.4135 20.4088L4.58691 33.0139C4.37246 33.1449 4.20566 33.3475 4.14609 33.5977C4.08652 33.8359 4.11035 34.098 4.24141 34.3244L7.10078 39.2807C7.23184 39.4951 7.43437 39.6619 7.68457 39.7215C7.76797 39.7453 7.85137 39.7572 7.93477 39.7572C8.10156 39.7572 8.26836 39.7096 8.41133 39.6262L10.4844 38.4229V42.2234L6.1 40.3291C5.80215 40.198 5.46855 40.2338 5.19453 40.4125C4.92051 40.5912 4.76562 40.8891 4.76562 41.2107V45.0232V56.2344H3.8125C3.28828 56.2344 2.85938 56.6633 2.85938 57.1875C2.85938 57.7117 3.28828 58.1406 3.8125 58.1406H57.1875C57.7117 58.1406 58.1406 57.7117 58.1406 57.1875C58.1406 56.6633 57.7117 56.2344 57.1875 56.2344ZM38.8875 56.2344L32.442 27.2236C33.7049 26.6637 34.6699 25.5676 35.0631 24.2213L47.1916 17.2158L51.9453 25.4604V56.2344H38.8875ZM30.5 27.6406H30.5834L33.0139 38.6016H27.9742L30.4047 27.6406H30.5ZM31.8225 43.4029L33.6572 41.4967L34.7652 46.4648L31.8225 43.4029ZM34.1934 48.6094H26.8066L30.5 44.773L34.1934 48.6094ZM30.5 42.0328L29.0346 40.5078H31.9654L30.5 42.0328ZM27.3428 41.4967L29.1775 43.4029L26.2348 46.4529L27.3428 41.4967ZM25.3293 50.5156H35.6588L36.9336 56.2344H24.0664L25.3293 50.5156ZM45.2139 4.83711C45.4164 4.78945 45.6309 4.76562 45.8572 4.76562C47.5371 4.76562 49.5148 5.99277 50.4561 7.63691L51.5283 9.49551C52.7316 11.5805 53.4346 15.3453 53.0771 17.7162L52.3623 22.3865L42.5809 5.4209L45.2139 4.83711ZM46.2385 15.5717L35.1703 21.9576C34.9082 20.6352 34.098 19.5033 32.99 18.8123L44.3322 12.2715L46.2385 15.5717ZM30.5 20.0156C32.0727 20.0156 33.3594 21.3023 33.3594 22.875C33.3594 24.4477 32.0727 25.7344 30.5 25.7344C28.9273 25.7344 27.6406 24.4477 27.6406 22.875C27.6406 21.3023 28.9273 20.0156 30.5 20.0156ZM8.26836 37.4936L6.36211 34.1934L25.7344 23.0061C25.7701 24.3881 26.4016 25.6152 27.3666 26.4611L12.3906 35.1227V33.3594C12.3906 32.8352 11.9617 32.4062 11.4375 32.4062C10.9133 32.4062 10.4844 32.8352 10.4844 33.3594V36.2188L8.26836 37.4936ZM12.3906 37.3148L28.3674 28.0934L22.1125 56.2344H18.1094V49.9438V49.8604V46.1313C18.1094 45.75 17.883 45.4045 17.5375 45.2615L12.3906 43.0455V37.3148ZM6.67188 42.6523L16.2031 46.7508V48.4902L6.67188 44.3918V42.6523ZM6.67188 46.4648L16.2031 50.5633V56.2344H6.67188V46.4648Z" fill="#AFD5CD"/>
</svg>
