<svg width="56" height="56" viewBox="0 0 56 56" fill="none" xmlns="http://www.w3.org/2000/svg">
<g clip-path="url(#clip0_330_2589)">
<path d="M49.3681 17.807C49.3681 14.5054 47.734 12.0033 45.9135 9.52033L38.4466 0L31.0121 9.47767L30.9798 9.52022C30.4888 10.1898 30.0118 10.8609 29.5763 11.5486L25.5006 6.35228L12.8054 22.5362L12.7731 22.5787C9.53684 26.9927 6.63184 31.4269 6.63184 37.131C6.63184 47.5104 15.0559 55.9593 25.4261 55.9996L25.503 56C35.9059 56 44.3693 47.5356 44.3693 37.1313C44.3693 33.7924 43.373 30.8888 41.8983 28.1694C46.234 26.7217 49.3681 22.6238 49.3681 17.807ZM25.5739 52.7142L25.5006 52.714C16.9081 52.714 9.91757 45.7236 9.91757 37.1311C9.91757 32.4224 12.4022 28.6428 15.4071 24.5431L25.5006 11.6761L27.9849 14.8432C27.6948 15.7657 27.5251 16.7448 27.5251 17.8069C27.5251 23.8051 32.3861 28.6896 38.3755 28.7283L38.4396 28.7287C40.0181 31.365 41.0836 34.0492 41.0836 37.1314C41.0836 45.7002 34.1328 52.6759 25.5739 52.7142ZM38.4889 25.4427H38.4465C34.2361 25.4427 30.8107 22.0173 30.8107 17.8068C30.8107 15.499 32.0244 13.6534 33.6138 11.4845L38.4466 5.32361L43.2795 11.4845C44.8688 13.6534 46.0825 15.4992 46.0825 17.807C46.0824 22.0038 42.68 25.4207 38.4889 25.4427Z" fill="#AFD5CD"/>
</g>
<defs>
<clipPath id="clip0_330_2589">
<rect width="56" height="56" fill="white"/>
</clipPath>
</defs>
</svg>
