<svg width="28" height="29" viewBox="0 0 28 29" fill="none" xmlns="http://www.w3.org/2000/svg">
<g clip-path="url(#clip0_111_6981)">
<path d="M13.9993 0.726573C6.48572 0.726574 0.372558 7.05053 0.372558 14.8232C0.372558 22.596 6.48572 28.9199 13.9993 28.9199C21.513 28.9199 27.6261 22.596 27.6261 14.8232C27.6261 7.05053 21.513 0.726573 13.9993 0.726573ZM13.9993 27.5114C7.23597 27.5114 1.73413 21.8198 1.73413 14.8232C1.73412 7.82665 7.23597 2.13509 13.9993 2.13509C20.7627 2.13509 26.2646 7.82665 26.2646 14.8232C26.2646 21.8198 20.7627 27.5114 13.9993 27.5114Z" fill="#AFD5CD"/>
<path d="M20.4013 14.3231L16.5723 10.362C16.3055 10.086 15.8776 10.086 15.6108 10.362C15.3441 10.6379 15.3441 11.0806 15.6108 11.3565L18.2784 14.1161L8.08053 14.1161C7.70263 14.1161 7.39697 14.4323 7.39697 14.8232C7.39697 15.2142 7.70263 15.5304 8.08053 15.5304L18.2728 15.5304L15.6053 18.2899C15.3385 18.5659 15.3385 19.0085 15.6053 19.2845C15.872 19.5604 16.3 19.5604 16.5667 19.2845L20.3958 15.3234C20.5291 15.1854 20.5958 15.0072 20.5958 14.8232C20.5958 14.6393 20.5347 14.461 20.4013 14.3231Z" fill="#AFD5CD"/>
</g>
<defs>
<clipPath id="clip0_111_6981">
<rect width="28.1933" height="27.2536" fill="white" transform="translate(0.372559 28.9199) rotate(-90)"/>
</clipPath>
</defs>
</svg>
