<svg width="20" height="14" viewBox="0 0 20 14" fill="none" xmlns="http://www.w3.org/2000/svg">
<path d="M19.3965 6.29026L13.7766 0.670357C13.3851 0.27884 12.757 0.27884 12.3655 0.670357C11.974 1.06187 11.974 1.68993 12.3655 2.08145L16.2807 5.99662L1.31332 5.99662C0.758672 5.99662 0.310059 6.44523 0.310059 6.99988C0.310059 7.55453 0.758672 8.00315 1.31332 8.00315L16.2725 8.00315L12.3574 11.9183C11.9659 12.3098 11.9659 12.9379 12.3574 13.3294C12.7489 13.7209 13.3769 13.7209 13.7685 13.3294L19.3884 7.70951C19.5841 7.51375 19.682 7.26089 19.682 6.99988C19.682 6.73887 19.5923 6.48602 19.3965 6.29026Z" fill="white"/>
</svg>
