<svg width="12" height="12" viewBox="0 0 12 12" fill="none" xmlns="http://www.w3.org/2000/svg">
<mask id="path-1-inside-1_147_6904" fill="white">
<path d="M0.13025 11.2412L3.35646 8.01493C2.64913 7.16682 2.22225 6.07705 2.22225 4.88884C2.22225 2.19309 4.41535 0 7.11112 0C9.80689 0 12 2.19309 12 4.88884C12 7.5846 9.80689 9.77769 7.11112 9.77769C5.9229 9.77769 4.83313 9.3508 3.98502 8.64348L0.758693 11.8698C0.671916 11.9566 0.558138 12 0.444471 12C0.330805 12 0.217027 11.9566 0.13025 11.8698C-0.0434166 11.6961 -0.0434166 11.4148 0.13025 11.2412ZM11.1111 4.88884C11.1111 2.68331 9.3169 0.888881 7.11112 0.888881C4.90535 0.888881 3.11113 2.68331 3.11113 4.88884C3.11113 7.09438 4.90535 8.88881 7.11112 8.88881C9.3169 8.88881 11.1111 7.09438 11.1111 4.88884Z"/>
</mask>
<path d="M0.13025 11.2412L3.35646 8.01493C2.64913 7.16682 2.22225 6.07705 2.22225 4.88884C2.22225 2.19309 4.41535 0 7.11112 0C9.80689 0 12 2.19309 12 4.88884C12 7.5846 9.80689 9.77769 7.11112 9.77769C5.9229 9.77769 4.83313 9.3508 3.98502 8.64348L0.758693 11.8698C0.671916 11.9566 0.558138 12 0.444471 12C0.330805 12 0.217027 11.9566 0.13025 11.8698C-0.0434166 11.6961 -0.0434166 11.4148 0.13025 11.2412ZM11.1111 4.88884C11.1111 2.68331 9.3169 0.888881 7.11112 0.888881C4.90535 0.888881 3.11113 2.68331 3.11113 4.88884C3.11113 7.09438 4.90535 8.88881 7.11112 8.88881C9.3169 8.88881 11.1111 7.09438 11.1111 4.88884Z" fill="white" fill-opacity="0.6"/>
<path d="M0.13025 11.2412L2.95872 14.0696L2.95776 14.0706L0.13025 11.2412ZM3.35646 8.01493L6.42832 5.45295L8.76887 8.25931L6.18493 10.8433L3.35646 8.01493ZM3.98502 8.64348L1.1566 5.81504L3.74059 3.23107L6.54697 5.5716L3.98502 8.64348ZM0.758694 11.8698L3.58711 14.6982L3.58711 14.6982L0.758694 11.8698ZM0.13025 11.8698L-2.69817 14.6982L0.13025 11.8698ZM-2.69822 8.41284L0.527999 5.18654L6.18493 10.8433L2.95872 14.0696L-2.69822 8.41284ZM0.284611 10.5769C-0.996482 9.04085 -1.77775 7.05306 -1.77775 4.88884H6.22225C6.22225 5.10105 6.29475 5.2928 6.42832 5.45295L0.284611 10.5769ZM-1.77775 4.88884C-1.77775 -0.0160741 2.20624 -4 7.11112 -4V4C6.62446 4 6.22225 4.40226 6.22225 4.88884H-1.77775ZM7.11112 -4C12.016 -4 16 -0.0160741 16 4.88884H8C8 4.40226 7.59778 4 7.11112 4V-4ZM16 4.88884C16 9.79376 12.016 13.7777 7.11112 13.7777V5.77769C7.59778 5.77769 8 5.37543 8 4.88884H16ZM7.11112 13.7777C4.94691 13.7777 2.95913 12.9964 1.42306 11.7153L6.54697 5.5716C6.70713 5.70518 6.89889 5.77769 7.11112 5.77769V13.7777ZM6.81344 11.4719L3.58711 14.6982L-2.06972 9.04134L1.1566 5.81504L6.81344 11.4719ZM3.58711 14.6982C2.72091 15.5644 1.57686 16 0.444471 16V8C-0.460583 8 -1.37708 8.3487 -2.06972 9.04134L3.58711 14.6982ZM0.444471 16C-0.687915 16 -1.83196 15.5644 -2.69817 14.6982L2.95867 9.04134C2.26602 8.3487 1.34953 8 0.444471 8V16ZM-2.69817 14.6982C-4.43344 12.963 -4.43475 10.1482 -2.69726 8.41189L2.95776 14.0706C4.34791 12.6813 4.34661 10.4293 2.95867 9.04134L-2.69817 14.6982ZM7.11111 4.88884L7.11112 4.88888V-3.11112C11.5262 -3.11112 15.1111 0.474288 15.1111 4.88884H7.11111ZM7.11112 4.88888L7.11113 4.88884H-0.888868C-0.888868 0.474288 2.69609 -3.11112 7.11112 -3.11112V4.88888ZM7.11113 4.88884L7.11112 4.88881V12.8888C2.69609 12.8888 -0.888868 9.3034 -0.888868 4.88884H7.11113ZM7.11112 4.88881L7.11111 4.88884H15.1111C15.1111 9.3034 11.5262 12.8888 7.11112 12.8888V4.88881Z" fill="#003A40" mask="url(#path-1-inside-1_147_6904)"/>
</svg>
