<svg width="25" height="28" viewBox="0 0 25 28" fill="none" xmlns="http://www.w3.org/2000/svg">
<g clip-path="url(#clip0_177_1655)">
<path d="M20.4568 18.1811C19.1367 18.1811 17.9462 18.748 17.1202 19.6469L8.90023 14.9579C9.0298 14.5368 9.09459 14.0914 9.09459 13.6378C9.09459 13.1843 9.0217 12.7308 8.90023 12.3097L17.1202 7.62067C17.9543 8.5196 19.1367 9.08649 20.4568 9.08649C22.9673 9.08649 25 7.04568 25 4.54325C25 2.04082 22.9592 0 20.4568 0C17.9543 0 15.9135 2.04082 15.9135 4.54325C15.9135 4.91578 15.954 5.27211 16.0431 5.62034L7.70975 10.3741C6.8918 9.5805 5.77421 9.08649 4.55134 9.08649C2.04082 9.08649 0 11.1273 0 13.6378C0 16.1484 2.04082 18.1811 4.54325 18.1811C5.76612 18.1811 6.88371 17.6871 7.70165 16.8934L16.035 21.6472C15.9459 21.9955 15.9054 22.3518 15.9054 22.7243C15.9054 25.2349 17.9462 27.2676 20.4487 27.2676C22.9511 27.2676 24.9919 25.2268 24.9919 22.7243C24.9919 20.2219 22.9592 18.1811 20.4568 18.1811V18.1811ZM20.4568 1.70878C22.0198 1.70878 23.2993 2.98024 23.2993 4.55134C23.2993 6.12245 22.0279 7.39391 20.4568 7.39391C19.7522 7.39391 19.1124 7.13476 18.6103 6.71364C18.0596 6.24393 17.6952 5.57985 17.6223 4.82669C17.6142 4.73761 17.6142 4.64853 17.6142 4.55134C17.6142 2.98834 18.8856 1.71688 20.4568 1.71688V1.70878ZM4.54325 16.4723C2.98024 16.4723 1.70068 15.2008 1.70068 13.6297C1.70068 12.0586 2.97214 10.7872 4.54325 10.7872C5.18303 10.7872 5.78231 10.9977 6.25202 11.3622C6.80272 11.7752 7.19145 12.3826 7.32912 13.079C7.36961 13.2572 7.38581 13.4435 7.38581 13.6297C7.38581 13.816 7.36961 14.0023 7.32912 14.1804C7.19145 14.8769 6.79462 15.4843 6.25202 15.8973C5.77421 16.2536 5.18303 16.4642 4.54325 16.4642V16.4723ZM20.4568 25.5669C18.8937 25.5669 17.6142 24.2954 17.6142 22.7243C17.6142 22.6352 17.6142 22.5462 17.6223 22.449C17.6952 21.6958 18.0596 21.0236 18.6103 20.562C19.1043 20.1409 19.7522 19.8818 20.4568 19.8818C22.0198 19.8818 23.2993 21.1532 23.2993 22.7243C23.2993 24.2954 22.0279 25.5669 20.4568 25.5669V25.5669Z" fill="#009D85"/>
</g>
<defs>
<clipPath id="clip0_177_1655">
<rect width="25" height="27.2676" fill="white"/>
</clipPath>
</defs>
</svg>
