<svg width="108" height="17" viewBox="0 0 108 17" fill="none" xmlns="http://www.w3.org/2000/svg">
<path d="M9.38945 1.98078L10.7995 4.80078C10.9895 5.19078 11.4995 5.56078 11.9295 5.64078L14.4795 6.06078C16.1095 6.33078 16.4895 7.51078 15.3195 8.69078L13.3295 10.6808C12.9995 11.0108 12.8095 11.6608 12.9195 12.1308L13.4895 14.5908C13.9395 16.5308 12.8995 17.2908 11.1895 16.2708L8.79945 14.8508C8.36945 14.5908 7.64945 14.5908 7.21945 14.8508L4.82945 16.2708C3.11945 17.2808 2.07945 16.5308 2.52945 14.5908L3.09945 12.1308C3.18945 11.6508 2.99945 11.0008 2.66945 10.6708L0.679454 8.68078C-0.490546 7.51078 -0.110546 6.33078 1.51945 6.05078L4.06945 5.63078C4.49945 5.56078 5.00945 5.18078 5.19945 4.79078L6.60945 1.97078C7.37945 0.450784 8.61945 0.450784 9.38945 1.98078Z" fill="#F9C200"/>
<path d="M32.3895 1.98078L33.7995 4.80078C33.9895 5.19078 34.4995 5.56078 34.9295 5.64078L37.4795 6.06078C39.1095 6.33078 39.4895 7.51078 38.3195 8.69078L36.3295 10.6808C35.9995 11.0108 35.8095 11.6608 35.9195 12.1308L36.4895 14.5908C36.9395 16.5308 35.8995 17.2908 34.1895 16.2708L31.7995 14.8508C31.3695 14.5908 30.6495 14.5908 30.2195 14.8508L27.8295 16.2708C26.1195 17.2808 25.0795 16.5308 25.5295 14.5908L26.0995 12.1308C26.1895 11.6508 25.9995 11.0008 25.6695 10.6708L23.6795 8.68078C22.5095 7.51078 22.8895 6.33078 24.5195 6.05078L27.0695 5.63078C27.4995 5.56078 28.0095 5.18078 28.1995 4.79078L29.6095 1.97078C30.3795 0.450784 31.6195 0.450784 32.3895 1.98078Z" fill="#F9C200"/>
<path d="M55.3895 1.98078L56.7995 4.80078C56.9895 5.19078 57.4995 5.56078 57.9295 5.64078L60.4795 6.06078C62.1095 6.33078 62.4895 7.51078 61.3195 8.69078L59.3295 10.6808C58.9995 11.0108 58.8095 11.6608 58.9195 12.1308L59.4895 14.5908C59.9395 16.5308 58.8995 17.2908 57.1895 16.2708L54.7995 14.8508C54.3695 14.5908 53.6495 14.5908 53.2195 14.8508L50.8295 16.2708C49.1195 17.2808 48.0795 16.5308 48.5295 14.5908L49.0995 12.1308C49.1895 11.6508 48.9995 11.0008 48.6695 10.6708L46.6795 8.68078C45.5095 7.51078 45.8895 6.33078 47.5195 6.05078L50.0695 5.63078C50.4995 5.56078 51.0095 5.18078 51.1995 4.79078L52.6095 1.97078C53.3795 0.450784 54.6195 0.450784 55.3895 1.98078Z" fill="#F9C200"/>
<path d="M78.3895 1.98078L79.7995 4.80078C79.9895 5.19078 80.4995 5.56078 80.9295 5.64078L83.4795 6.06078C85.1095 6.33078 85.4895 7.51078 84.3195 8.69078L82.3295 10.6808C81.9995 11.0108 81.8095 11.6608 81.9195 12.1308L82.4895 14.5908C82.9395 16.5308 81.8995 17.2908 80.1895 16.2708L77.7995 14.8508C77.3695 14.5908 76.6495 14.5908 76.2195 14.8508L73.8295 16.2708C72.1195 17.2808 71.0795 16.5308 71.5295 14.5908L72.0995 12.1308C72.1895 11.6508 71.9995 11.0008 71.6695 10.6708L69.6795 8.68078C68.5095 7.51078 68.8895 6.33078 70.5195 6.05078L73.0695 5.63078C73.4995 5.56078 74.0095 5.18078 74.1995 4.79078L75.6095 1.97078C76.3795 0.450784 77.6195 0.450784 78.3895 1.98078Z" fill="#F9C200"/>
<path d="M101.389 1.98078L102.799 4.80078C102.989 5.19078 103.499 5.56078 103.929 5.64078L106.479 6.06078C108.109 6.33078 108.489 7.51078 107.319 8.69078L105.329 10.6808C104.999 11.0108 104.809 11.6608 104.919 12.1308L105.489 14.5908C105.939 16.5308 104.899 17.2908 103.189 16.2708L100.799 14.8508C100.369 14.5908 99.6495 14.5908 99.2195 14.8508L96.8295 16.2708C95.1195 17.2808 94.0795 16.5308 94.5295 14.5908L95.0995 12.1308C95.1895 11.6508 94.9995 11.0008 94.6695 10.6708L92.6795 8.68078C91.5095 7.51078 91.8895 6.33078 93.5195 6.05078L96.0695 5.63078C96.4995 5.56078 97.0095 5.18078 97.1995 4.79078L98.6095 1.97078C99.3795 0.450784 100.619 0.450784 101.389 1.98078Z" fill="#F9C200"/>
</svg>
