<svg width="55" height="43" viewBox="0 0 55 43" fill="none" xmlns="http://www.w3.org/2000/svg">
<path d="M36.7205 37.8695C30.2769 26.9698 28.6311 14.9366 28.2274 8.63282C28.1964 8.22912 27.8548 7.9186 27.4511 7.9186C27.0474 7.9186 26.6903 8.22912 26.6748 8.63282C26.2711 14.9366 24.6252 26.9543 18.1817 37.8695C17.6848 36.3324 16.7222 34.1431 15.0453 32.7613C15.9614 31.2707 18.4456 27.1406 20.992 22.0323C24.1749 15.6353 26.3487 10.0613 27.4667 5.38775C28.5691 10.0613 30.7427 15.6353 33.9257 22.0323C36.4721 27.1251 38.9564 31.2707 39.8724 32.7613C38.1956 34.1276 37.2329 36.3324 36.736 37.8695M19.6722 38.3974C22.3739 33.7705 24.501 28.5225 25.9916 22.8087C26.6437 20.2933 27.1251 17.9022 27.4667 15.713C27.8082 17.8867 28.2895 20.2933 28.9416 22.8087C30.4322 28.5225 32.5438 33.7549 35.261 38.3974H19.6878H19.6722ZM5.01508 38.3974C10.7755 29.2677 21.3802 12.4368 25.9916 4.84431C23.1347 17.0793 13.4616 32.3886 13.3529 32.5594C13.12 32.9165 13.2287 33.3823 13.5858 33.5997C15.2782 34.671 16.2408 36.8913 16.7221 38.3974H5.01508ZM52.8061 38.3974H51.7193C49.499 34.8729 42.9156 24.4079 37.2173 15.2627C37 14.9056 36.5186 14.7814 36.146 14.9988C35.7734 15.2161 35.6647 15.6819 35.8821 16.0546C41.1922 24.5787 47.2942 34.2673 49.8872 38.3974H38.2111C38.6924 36.8913 39.6396 34.671 41.3475 33.5997C41.7046 33.3823 41.8133 32.9165 41.5959 32.5594C41.4872 32.3886 31.8141 17.0638 28.9572 4.82879C30.0595 6.64541 31.7209 9.33152 34.2207 13.3685C34.4381 13.7256 34.9194 13.8498 35.2921 13.6324C35.6647 13.415 35.7734 12.9492 35.556 12.5766C29.4851 2.81033 28.3517 0.822916 28.2274 0.512382C28.1188 0.201849 27.8237 0 27.4821 0C27.156 0 26.8611 0.201858 26.7524 0.496864C26.7524 0.512391 26.7524 0.543434 26.7369 0.558961C25.976 2.17373 14.4709 20.5573 3.21403 38.3974H2.15813C0.962581 38.3974 0 39.3445 0 40.4935C0 41.6425 0.962581 42.6051 2.15813 42.6051H4.658C5.09274 42.6051 5.43433 42.2636 5.43433 41.8443C5.43433 41.4251 5.07722 41.0835 4.658 41.0835H2.15813C1.83207 41.0835 1.56811 40.8196 1.56811 40.5091C1.56811 40.1985 1.83207 39.9346 2.15813 39.9346H52.8372C53.1632 39.9346 53.4272 40.1985 53.4272 40.5091C53.4272 40.8196 53.1632 41.0835 52.8372 41.0835H7.87203C7.43728 41.0835 7.09569 41.4251 7.09569 41.8443C7.09569 42.2636 7.45281 42.6051 7.87203 42.6051H52.8372C54.0327 42.6051 54.9954 41.658 54.9954 40.4935C54.9954 39.329 54.0327 38.3974 52.8372 38.3974" fill="white"/>
</svg>
