<svg width="23" height="14" viewBox="0 0 23 14" fill="none" xmlns="http://www.w3.org/2000/svg">
<path d="M0.625 1.25C0.279825 1.25 0 0.970175 0 0.625C0 0.279825 0.279825 0 0.625 0H21.875C22.2201 0 22.5 0.279825 22.5 0.625C22.5 0.970175 22.2201 1.25 21.875 1.25H0.625ZM0.625 7.5C0.279825 7.5 0 7.22013 0 6.875C0 6.52987 0.279825 6.25 0.625 6.25H21.875C22.2201 6.25 22.5 6.52987 22.5 6.875C22.5 7.22013 22.2201 7.5 21.875 7.5H0.625ZM0.625 13.75C0.279825 13.75 0 13.4701 0 13.125C0 12.7799 0.279825 12.5 0.625 12.5H21.875C22.2201 12.5 22.5 12.7799 22.5 13.125C22.5 13.4701 22.2201 13.75 21.875 13.75H0.625Z" fill="white"/>
</svg>
