<svg width="23" height="21" viewBox="0 0 23 21" fill="none" xmlns="http://www.w3.org/2000/svg">
<path fill-rule="evenodd" clip-rule="evenodd" d="M6.83285 4.27917C9.83496 4.05082 12.8508 4.05082 15.8529 4.27917L17.8695 4.43256C18.9928 4.518 19.9117 5.33647 20.0974 6.41689C20.562 9.1202 20.562 11.8797 20.0974 14.583C19.9117 15.6635 18.9928 16.4819 17.8695 16.5674L15.8529 16.7208C12.8508 16.9491 9.83495 16.9491 6.83285 16.7208L4.81622 16.5674C3.69295 16.4819 2.77403 15.6635 2.58835 14.583C2.12377 11.8797 2.12377 9.1202 2.58835 6.41689C2.77403 5.33647 3.69295 4.518 4.81622 4.43256L6.83285 4.27917ZM9.54286 12.6613V8.33859C9.54286 8.13455 9.77181 8.00852 9.95177 8.1135L13.657 10.2749C13.8318 10.3768 13.8318 10.6231 13.657 10.7251L9.95177 12.8864C9.77181 12.9914 9.54286 12.8654 9.54286 12.6613Z" fill="white"/>
</svg>
